<svg xmlns="http://www.w3.org/2000/svg" width="84.003" height="84.008" viewBox="0 0 84.003 84.008">
    <g data-name="그룹 1469">
        <path data-name="패스 1279" d="M278.892 220.969a42.919 42.919 0 0 0-32.283-4.684 42.305 42.305 0 0 0-26.192 19.166 41.157 41.157 0 0 0-4.756 31.789 41.775 41.775 0 0 0 19.464 25.79 42.921 42.921 0 0 0 32.284 4.684l30.947-50.955a41.775 41.775 0 0 0-19.464-25.79z" transform="translate(-214.354 -214.995)" style="fill:#888"/>
        <g data-name="그룹 1468">
            <path data-name="패스 1280" d="M288.428 248.925a32.682 32.682 0 0 0-39.619-23.331 32.111 32.111 0 0 0-23.694 39.013 32.682 32.682 0 0 0 39.619 23.332 33.123 33.123 0 0 0 5.24-1.772l19.348-31.856a31.9 31.9 0 0 0-.894-5.386z" transform="translate(-214.116 -214.761)" style="fill:#fff"/>
        </g>
        <path data-name="패스 1281" d="M272.956 265.169c-5.845 9.624-9.565 20.914-6.787 31.789L297.116 246c-11.044 2.735-18.315 9.542-24.16 19.166z" transform="translate(-213.113 -214.239)" style="fill:#aaa"/>
    </g>
    <text data-name="사용 완료" transform="rotate(-16.98 160.19 -67.792)" style="font-size:16px;font-family:NotoSansCJKkr-Medium,Noto Sans CJK KR;font-weight:500;fill:#888"><tspan x="0" y="0">사용</tspan><tspan x="0" y="16">완료</tspan></text>
</svg>
