<svg xmlns="http://www.w3.org/2000/svg" width="450.002" height="56.995" viewBox="0 0 450.002 56.995">
    <g data-name="그룹 1470">
        <path data-name="합치기 16" d="M-18516.795 54.086a38.5 38.5 0 0 1-6.459-3.407 38.344 38.344 0 0 1-5.621-4.521 37.348 37.348 0 0 1-4.643-5.475 37.348 37.348 0 0 1-3.5-6.284A35.9 35.9 0 0 1-18540 20h76a35.963 35.963 0 0 1-2.984 14.4 36.615 36.615 0 0 1-3.508 6.284 37.2 37.2 0 0 1-4.639 5.475 37.968 37.968 0 0 1-5.625 4.521 38.217 38.217 0 0 1-6.453 3.407A38.614 38.614 0 0 1-18502.01 57a38.58 38.58 0 0 1-14.785-2.914zM-18722 20l-5.006-5V0h450v15l-5 5z" transform="translate(18727.002)" style="fill:#ffc600"/>
    </g>
    <path data-name="빼기 4" d="M-18689 41a38.618 38.618 0 0 1-14.791-2.909 38.193 38.193 0 0 1-6.453-3.407 38.024 38.024 0 0 1-5.625-4.521 37.283 37.283 0 0 1-4.641-5.475 36.538 36.538 0 0 1-3.5-6.284A35.871 35.871 0 0 1-18727 4h.219a35.9 35.9 0 0 0 2.771 10.4 36.537 36.537 0 0 0 3.5 6.284 37.4 37.4 0 0 0 4.641 5.475 37.92 37.92 0 0 0 5.625 4.521 38.265 38.265 0 0 0 6.453 3.407A38.6 38.6 0 0 0-18689 37a38.6 38.6 0 0 0 14.789-2.909 38.261 38.261 0 0 0 6.453-3.407 37.827 37.827 0 0 0 5.625-4.521 37.7 37.7 0 0 0 4.645-5.475 36.624 36.624 0 0 0 3.5-6.284 35.892 35.892 0 0 0 2.77-10.4h.219a35.88 35.88 0 0 1-2.988 14.4 36.629 36.629 0 0 1-3.5 6.284 37.694 37.694 0 0 1-4.645 5.475 38.029 38.029 0 0 1-5.625 4.521 38.2 38.2 0 0 1-6.453 3.407A38.615 38.615 0 0 1-18689 41z" transform="translate(18913.994 15.998)" style="fill:#292929;opacity:.34;mix-blend-mode:multiply;isolation:isolate"/>
</svg>
