<svg xmlns="http://www.w3.org/2000/svg" width="90" height="90" viewBox="0 0 90 90">
    <defs>
        <clipPath id="930chxom9a">
            <path data-name="사각형 4849" style="fill:none" d="M0 0h90v90H0z"/>
        </clipPath>
    </defs>
    <g data-name="그룹 4322" style="clip-path:url(#930chxom9a)">
        <path data-name="패스 11382" d="M45 90a45 45 0 1 1 45-45 45.05 45.05 0 0 1-45 45zm0-82.276A37.276 37.276 0 1 0 82.276 45 37.318 37.318 0 0 0 45 7.722z" style="fill:#eee"/>
        <path data-name="패스 11383" d="M67 39.6c0 2.662.056 5.325-.015 7.985a23.238 23.238 0 0 1-1.585 8.073 18.28 18.28 0 0 1-4.878 6.99 31.34 31.34 0 0 1-8.25 5.173c-1.742.77-3.519 1.462-5.273 2.2a2.677 2.677 0 0 1-2.146.048 71.972 71.972 0 0 1-8.221-3.688 25.114 25.114 0 0 1-7.252-5.67 19.008 19.008 0 0 1-4.07-8.521 32.628 32.628 0 0 1-.626-6.66q-.017-6.383-.006-12.765c0-.36.04-.72.03-1.079a1.637 1.637 0 0 1 1.092-1.625c2.142-.972 4.291-1.928 6.434-2.9q6.309-2.858 12.61-5.732a2.237 2.237 0 0 1 2-.015q4.05 1.865 8.117 3.7c3.621 1.64 7.246 3.27 10.862 4.921a2.383 2.383 0 0 1 .852.63 1.545 1.545 0 0 1 .331.886c.024 2.683.014 5.368.014 8.051H67m-19.4 4.371a2.325 2.325 0 0 0 .24.027c.894 0 1.788-.009 2.682-.009h10.93c.271 0 .358-.075.35-.349-.018-.654-.011-1.308-.009-1.963.007-2.389.01-4.778.028-7.165 0-.6.025-.607-.526-.856l-5.059-2.289-7.977-3.6c-.211-.1-.435-.16-.659-.241zm-17.562 3.492a14.429 14.429 0 0 0 .378 3.838 13.177 13.177 0 0 0 4.129 7.334 30.738 30.738 0 0 0 9.247 5.379 1.643 1.643 0 0 0 .326.066V62.87q0-7.4.008-14.79c0-.613 0-.614-.616-.614H30.038" transform="translate(-.85 -.73)" style="fill:#eee"/>
    </g>
</svg>
