<svg xmlns="http://www.w3.org/2000/svg" width="161" height="62" viewBox="0 0 161 62">
    <defs>
        <clipPath id="ocu3mtgwxa">
            <path data-name="사각형 1877" style="fill:none" d="M0 0h161v62H0z"/>
        </clipPath>
    </defs>
    <path data-name="패스 1353" d="M11.55 13.552h23.744v2.912H11.55zm21.924 11.9h-3.64v-4.368H13.23v-2.912h20.244zm-.28-17.725H16.9v1.43h16.714v2.687H13.37V1.092h20.1v2.689H16.9v1.4h16.3z" style="fill:#292929"/>
    <path data-name="패스 1354" d="M38.178 1.148h3.528V4h6.972l.28-2.855h3.528l-1.12 11.315H38.178zM43.33 21.2v1.372h16.856v2.743H39.8v-6.72h16.578v-1.347H39.8V14.5h20.1v6.7zM41.706 9.547h6.412L48.4 6.86h-6.694zM53.13 3.024h3.136V.727h3.64v12.712h-3.64V11h-3.64V7.979h3.64V6.047H53.13z" transform="translate(-.061)" style="fill:#292929"/>
    <g data-name="그룹 45">
        <g data-name="그룹 44" style="clip-path:url(#ocu3mtgwxa)">
            <path data-name="패스 1355" d="M63.35 2.53h5.7V0h3.635v2.53h5.7v2.946H63.35zm5.424 4.115h4.194c2.852 0 5.005 1.862 5.005 4.669s-2.153 4.67-5.005 4.67h-4.194c-2.852 0-5.005-1.862-5.005-4.67s2.153-4.669 5.005-4.669M64.832 17.29h3.635v4.642h16.721v3.058H64.832zm4.11-4.142H72.8a1.7 1.7 0 0 0 1.65-1.835 1.7 1.7 0 0 0-1.65-1.834h-3.858a1.7 1.7 0 0 0-1.65 1.835 1.7 1.7 0 0 0 1.65 1.835m18.734-2.835h-3.048v8.868h-3.635V.723h3.635V7.2h3.048z" transform="translate(-.088)" style="fill:#292929"/>
            <path data-name="사각형 1876" transform="translate(98.465 1.445)" style="fill:#292929" d="M0 0h3.859v21.793H0z"/>
            <path data-name="패스 1356" d="M106.525 1.456h6.151c7.074 0 11.38 3.947 11.38 10.9s-4.306 10.9-11.38 10.9h-6.151zm6.123 18.457c4.865 0 7.494-2.641 7.494-7.561s-2.628-7.56-7.494-7.56h-2.265v15.121z" transform="translate(-.148 -.011)" style="fill:#292929"/>
            <path data-name="패스 1357" d="M131.27 10.463v3h16.693v3.059H139.6v4.03h10.04v3.169h-23.711v-3.169h10.038v-4.03h-8.221V7.544H144.3V4.569h-16.553V1.511h20.076v8.952z" transform="translate(-.175 -.011)" style="fill:#292929"/>
            <path data-name="패스 1358" d="M6.263 53.632h3.775v-2.168H0v-3h23.711v3H13.673v2.168h3.775c2.852 0 5.005 1.7 5.005 4.309S20.3 62.25 17.448 62.25H6.263c-2.852 0-5.005-1.7-5.005-4.309s2.153-4.309 5.005-4.309m-4.585-7.09v-2.834h2.88l.28-2.641H1.622v-2.835h20.467v2.835h-2.936l-.28 2.641h3.16v2.834zm4.753 12.816H17.28a1.427 1.427 0 1 0 0-2.835H6.431a1.427 1.427 0 1 0 0 2.835m1.762-15.65h7.046l.28-2.641H8.472z" transform="translate(0 -.277)" style="fill:#ffc600"/>
            <path data-name="패스 1359" d="m36.5 38.34 5.45 12.147h-3.775l-4.166-9.618-4.166 9.618h-3.775L31.52 38.34zm-3.8 14.455h11.179a4.733 4.733 0 1 1 0 9.451H32.695a4.733 4.733 0 1 1 0-9.451m.168 6.5h10.848a1.79 1.79 0 0 0 0-3.558H32.863a1.79 1.79 0 0 0 0 3.558M40.8 41.842h3.89v-4.115h3.635v14.065H44.69V44.9H40.8z" transform="translate(-.036 -.273)" style="fill:#ffc600"/>
            <path data-name="패스 1360" d="M51.8 39.53h5.7V37h3.635v2.53h5.7v2.947H51.8zm5.424 4.115h4.194c2.852 0 5.005 1.862 5.005 4.669s-2.153 4.67-5.005 4.67h-4.194c-2.852 0-5.005-1.862-5.005-4.67s2.153-4.669 5.005-4.669M53.282 54.29h3.635v4.642h16.721v3.058H53.282zm4.11-4.142h3.859a1.845 1.845 0 0 0 0-3.669h-3.859a1.845 1.845 0 0 0 0 3.669m18.734-2.835h-3.048v8.868h-3.635V37.723h3.635V44.2h3.048z" transform="translate(-.072 -.268)" style="fill:#ffc600"/>
            <path data-name="패스 1361" d="M90.546 39.864v-2.7h3.523v2.7h4.138v3.058h-11.8v-3.058zm12.806 21.848h-3.411v-5H97.7a5.146 5.146 0 0 1-5.4 4.532c-3.523 0-5.564-2.363-5.564-6.366v-4.339c0-4 2.041-6.367 5.564-6.367a5.231 5.231 0 0 1 4.054 1.641h3.579v-7.978h3.411zm-13.2-6.837c0 2.2.643 3.362 2.153 3.362s2.153-1.166 2.153-3.362v-4.336c0-2.2-.643-3.363-2.153-3.363s-2.153 1.167-2.153 3.363zm7.717-1.167h2.069v-4.893h-2.206a11.312 11.312 0 0 1 .14 1.723zm7.27-15.984h3.523V61.99h-3.523z" transform="translate(-.12 -.269)" style="fill:#ffc600"/>
            <path data-name="패스 1362" d="M123.157 38.534v2.891h-7.3V43.7h6.878v2.78h-6.878v2.279h8.443v2.891h-11.852V38.534zm11.268 23.739h-3.635v-5.2h-16.86v-3.056h20.5zm-5.592-18.6h2.067v-5.945h3.523v15.038H130.9v-6.087h-2.069v5.95h-3.411v-14.79h3.411z" transform="translate(-.156 -.273)" style="fill:#ffc600"/>
            <path data-name="패스 1363" d="M137.479 47.515h23.711v2.891h-23.711zm6.263-9.508h11.184c2.852 0 5.005 1.584 5.005 4.115s-2.153 4.113-5.005 4.113h-11.184c-2.852 0-5.005-1.583-5.005-4.113s2.153-4.115 5.005-4.115M142.82 58.3v1.279h16.833v2.668H139.3V55.77h16.553v-1.251H139.3v-2.668h20.076V58.3zm1.09-14.9h10.849c.951 0 1.594-.444 1.594-1.278s-.643-1.279-1.594-1.279H143.91c-.951 0-1.594.444-1.594 1.279s.643 1.278 1.594 1.278" transform="translate(-.191 -.275)" style="fill:#292929"/>
        </g>
    </g>
</svg>
