<svg xmlns="http://www.w3.org/2000/svg" width="93.21" height="93.21" viewBox="0 0 93.21 93.21">
    <path data-name="패스 3633" d="M172.994 109.513a46.605 46.605 0 1 1 46.6-46.6 46.657 46.657 0 0 1-46.6 46.6zm0-85.21a38.605 38.605 0 1 0 38.6 38.605 38.649 38.649 0 0 0-38.6-38.608z" transform="translate(-126.389 -16.303)" style="fill:#eee"/>
    <g data-name="그룹 3434">
        <g data-name="그룹 3433">
            <path data-name="패스 3635" d="M2721.474 932.231v-27.057l-16.86 13.624z" transform="translate(-2651.335 -872.092)" style="fill:#eee"/>
            <path data-name="패스 3636" d="m2591.118 932.185 16.86-13.624-16.86-13.433z" transform="translate(-2567.056 -872.058)" style="fill:#eee"/>
            <path data-name="패스 3637" d="m2614.327 965.411-1.038-.827-3.987-3.177-18.184 14.693h46.076l-18.177-14.482-3.66 2.957z" transform="translate(-2567.056 -913.85)" style="fill:#eee"/>
            <path data-name="패스 3638" d="m2614.319 915.4 22.875-18.485h-46.076z" transform="translate(-2567.056 -865.961)" style="fill:#eee"/>
        </g>
    </g>
</svg>
