<svg xmlns="http://www.w3.org/2000/svg" width="34" height="34" viewBox="0 0 34 34">
    <g data-name="패스 24" style="fill:#fff">
        <path d="M17 33a15.895 15.895 0 0 1-11.314-4.686A15.895 15.895 0 0 1 1 17c0-4.274 1.664-8.292 4.686-11.314A15.895 15.895 0 0 1 17 1c4.274 0 8.292 1.664 11.314 4.686A15.895 15.895 0 0 1 33 17c0 4.274-1.664 8.292-4.686 11.314A15.895 15.895 0 0 1 17 33z" style="stroke:none"/>
        <path d="M17 2C12.993 2 9.227 3.56 6.393 6.393A14.902 14.902 0 0 0 2 17c0 4.007 1.56 7.773 4.393 10.607A14.902 14.902 0 0 0 17 32c4.007 0 7.773-1.56 10.607-4.393A14.902 14.902 0 0 0 32 17c0-4.007-1.56-7.773-4.393-10.607A14.902 14.902 0 0 0 17 2m0-2c9.389 0 17 7.611 17 17s-7.611 17-17 17S0 26.389 0 17 7.611 0 17 0z" style="fill:#111;stroke:none"/>
    </g>
    <path data-name="패스 18" d="M10.706 3.011 4.768 7.2v2.4l5.938 4.158zM16.485 4.3a.881.881 0 0 0-1.357 1.123 4.278 4.278 0 0 1 .977 2.93v.084a4.278 4.278 0 0 1-.977 2.93.881.881 0 0 0 1.357 1.123 6.04 6.04 0 0 0 1.381-4.1 6.04 6.04 0 0 0-1.381-4.09zM14.14 6.074A.881.881 0 0 0 12.782 7.2a1.691 1.691 0 0 1 .386 1.158v.084a1.691 1.691 0 0 1-.386 1.158.881.881 0 0 0 1.358 1.12 3.453 3.453 0 0 0 .79-2.32 3.453 3.453 0 0 0-.79-2.326z" transform="translate(6.079 8.781)" style="fill:#111;fill-rule:evenodd"/>
</svg>
