<svg xmlns="http://www.w3.org/2000/svg" width="20" height="20" viewBox="0 0 20 20">
    <path data-name="패스 6" d="M23.4 32.8a2.148 2.148 0 0 1-2-2.271v-15.46a2.149 2.149 0 0 1 2-2.271 2.149 2.149 0 0 1 2 2.271v15.458a2.148 2.148 0 0 1-2 2.271" transform="translate(-13.401 -12.798)" style="fill:#111"/>
    <path data-name="패스 7" d="M14.7 27.991a2.058 2.058 0 0 1-2-2.111V20.1a2 2 0 1 1 4 0v5.78a2.058 2.058 0 0 1-2 2.111" transform="translate(-12.696 -12.991)" style="fill:#111"/>
    <path data-name="패스 8" d="M31.911 27.991a2.058 2.058 0 0 1-2-2.111V20.1a2 2 0 1 1 4 0v5.78a2.058 2.058 0 0 1-2 2.111" transform="translate(-13.911 -12.991)" style="fill:#111"/>
</svg>
