<svg xmlns="http://www.w3.org/2000/svg" width="160" height="27" viewBox="0 0 160 27">
    <defs>
        <clipPath id="j2qmxbwgka">
            <path data-name="사각형 581" transform="translate(0 .214)" style="fill:#555" d="M0 0h160v27H0z"/>
        </clipPath>
    </defs>
    <g data-name="그룹 1906">
        <g data-name="그룹 1876" transform="translate(0 -.214)" style="clip-path:url(#j2qmxbwgka)">
            <path data-name="패스 3185" d="M273.58 15.983A7.98 7.98 0 0 0 268.318 14a7.768 7.768 0 1 0 0 15.535 7.982 7.982 0 0 0 5.262-1.983v1.983h2.632V14h-2.632zm0 5.784a5.264 5.264 0 1 1-5.262-5.178 5.226 5.226 0 0 1 5.262 5.178" transform="translate(-174.746 -9.736)" style="fill:#555"/>
            <path data-name="패스 3186" d="M357.995 15.983a7.973 7.973 0 0 0-11.707 1.3l-5 7.193-.183.255a5.3 5.3 0 0 1-4.314 2.221 5.179 5.179 0 1 1 5.072-6.538l.188.675 2.636-3.789V14h-2.632v1.983A7.985 7.985 0 0 0 336.787 14a7.769 7.769 0 1 0 0 15.535 7.951 7.951 0 0 0 6.3-3.1l.011.006 5.1-7.335.231-.335a5.305 5.305 0 0 1 4.3-2.186 5.179 5.179 0 1 1-5.074 6.539l-.186-.675-1.859 2.673.088.171a7.891 7.891 0 0 0 7.031 4.238 7.978 7.978 0 0 0 5.262-1.983v1.983h2.634V14h-2.634z" transform="translate(-220.687 -9.736)" style="fill:#555"/>
            <path data-name="패스 3187" d="M463.324 19.758a5.852 5.852 0 0 0-5.876-5.473 5.96 5.96 0 0 0-3.262.974V14h-2.632v15.535h2.632v-9.454a3.263 3.263 0 0 1 6.524 0v9.454h2.632v-9.777z" transform="translate(-302.995 -9.736)" style="fill:#555"/>
            <path data-name="사각형 577" transform="translate(142.705 4.264)" style="fill:#555" d="M0 0h2.632v15.535H0z"/>
            <path data-name="사각형 578" transform="translate(142.705 -.267)" style="fill:#555" d="M0 0h2.632v2.913H0z"/>
            <path data-name="사각형 579" transform="translate(81.864 4.264)" style="fill:#555" d="M0 0h2.632v15.535H0z"/>
            <path data-name="사각형 580" transform="translate(81.864 -.267)" style="fill:#555" d="M0 0h2.632v2.913H0z"/>
            <path data-name="패스 3188" d="M158.553 29.535h11.514v-2.589h-8.882v-3.884h8.882v-2.589h-8.882v-3.884h8.882V14h-11.514z" transform="translate(-106.39 -9.736)" style="fill:#555"/>
            <path data-name="패스 3189" d="M101 14.284a5.935 5.935 0 0 0-4.577 2.153 5.943 5.943 0 0 0-7.837-1.179V14h-2.637v15.535h2.632v-9.454a3.261 3.261 0 0 1 6.522 0v9.454h2.632v-9.454a3.261 3.261 0 0 1 6.522 0v9.454h2.632v-9.454a5.852 5.852 0 0 0-5.893-5.8" transform="translate(-57.672 -9.736)" style="fill:#555"/>
            <path data-name="패스 3190" d="M207.664 14h-5.626v15.535h5.626a7.769 7.769 0 1 0 0-15.535m5.264 7.768a5.227 5.227 0 0 1-5.264 5.178h-2.994V16.589h2.994a5.227 5.227 0 0 1 5.264 5.178" transform="translate(-135.569 -9.736)" style="fill:#555"/>
            <path data-name="패스 3191" d="M344.057 56.617a4.747 4.747 0 0 1-4.511 3.281 4.687 4.687 0 0 1-4.72-4.644v-.324h-2.632v.324a7.353 7.353 0 0 0 14.7 0v-2.746l-2.8 4.021z" transform="translate(-222.905 -35.781)" style="fill:#555"/>
            <path data-name="패스 3192" d="m40.579 21.976 4.137-4.07v2.187h1.974v-5.5H41.1v1.942h2.22L39.183 20.6z" transform="translate(-26.292 -10.136)" style="fill:#555"/>
            <path data-name="패스 3193" d="M33.843 37.591c0 .112.005.218 0 .313v.023c.007 1.1-.23 3.479-1.17 4.624-.394.48-2.8 1.19-6.707 1.19H25.273c-.836 0-1.6-.034-2.291-.09 0 .03.007.059.007.09V45.6c.99.073 1.835.086 2.284.086h.696c1.42 0 6.773-.121 8.243-1.912 1.571-1.914 1.611-5.348 1.608-5.855v-.324z" transform="translate(-15.42 -25.692)" style="fill:#555"/>
            <path data-name="패스 3194" d="m6.111 39.775-4.137 4.07v-2.187H0v5.5h5.592v-1.94H3.369l4.137-4.07z" transform="translate(0 -27.169)" style="fill:#555"/>
            <path data-name="패스 3195" d="M12.831 16.534v-1.856a32.05 32.05 0 0 0-2.284-.086h-.696c-1.42 0-6.773.121-8.243 1.912C.036 18.419 0 21.852 0 22.36v.324h1.979c0-.112-.005-.218 0-.313v-.023c-.007-1.1.23-3.479 1.17-4.624.394-.48 2.8-1.19 6.708-1.19H10.55c.836 0 1.6.034 2.291.09 0-.03-.007-.059-.007-.09" transform="translate(0 -10.136)" style="fill:#555"/>
        </g>
    </g>
</svg>
