<svg xmlns="http://www.w3.org/2000/svg" width="67" height="27" viewBox="0 0 67 27">
    <defs>
        <clipPath id="dyzf2oku1a">
            <path data-name="사각형 2" transform="translate(0 .001)" style="fill:none" d="M0 0h67v27H0z"/>
        </clipPath>
    </defs>
    <g data-name="그룹 1" transform="translate(0 -.001)" style="clip-path:url(#dyzf2oku1a)">
        <path data-name="패스 1" d="M8.625 20.88a4.566 4.566 0 0 0 2.591-4.086 4.655 4.655 0 0 0-4.8-4.6H.548A.55.55 0 0 0 0 12.74v1.493h6.346a2.57 2.57 0 0 1 2.745 2.56 2.684 2.684 0 0 1-2.762 2.6H0v6.33a.55.55 0 0 0 .549.551h1.027a.55.55 0 0 0 .549-.551v-4.289h4.448l2.534 4.553a.55.55 0 0 0 .48.282h1.151a.551.551 0 0 0 .477-.824z" transform="translate(.001 -7.709)" style="fill:#000"/>
        <path data-name="패스 2" d="M87.1 21.55 85.5 1.915A2.079 2.079 0 0 0 83.263.007L47.1 2.97a2.082 2.082 0 0 0-1.9 2.246l.937 11.531h-8.3a3.7 3.7 0 0 1-3.842-3.04h9.065a.55.55 0 0 0 .549-.551v-.462a5.646 5.646 0 0 0-5.826-5.849 5.84 5.84 0 0 0-5.933 6.009 5.7 5.7 0 0 0 5.986 5.92H46.3l.494 6.077a2.079 2.079 0 0 0 2.238 1.908L85.2 23.8a2.082 2.082 0 0 0 1.9-2.246M37.782 8.872a3.538 3.538 0 0 1 3.61 2.791h-7.311a3.824 3.824 0 0 1 3.7-2.791m15.575 5.547h-2.335v3.591a.55.55 0 0 1-.549.551h-1.028a.55.55 0 0 1-.549-.551v-5.654h4.41a2.9 2.9 0 0 0 3.187-2.916 2.867 2.867 0 0 0-3.187-2.916H48.9V5.031a.55.55 0 0 1 .549-.551h3.913a4.978 4.978 0 1 1 0 9.939m17.69 3.591a.55.55 0 0 1-.549.551h-.992a.55.55 0 0 1-.549-.551v-.736a5.58 5.58 0 0 1-3.789 1.5 5.864 5.864 0 0 1-5.9-5.956 5.873 5.873 0 0 1 5.9-5.974 5.563 5.563 0 0 1 3.789 1.512v-.747a.55.55 0 0 1 .549-.551h.989a.55.55 0 0 1 .549.551zm12.3-10.176-6.765 15.2a.549.549 0 0 1-.5.326h-1.1a.551.551 0 0 1-.5-.778l2.322-5.154-4.534-9.582a.551.551 0 0 1 .5-.788H73.9a.55.55 0 0 1 .5.316l3.541 7.561 3.3-7.548a.549.549 0 0 1 .5-.329h1.1a.551.551 0 0 1 .5.776" transform="translate(-20.188)" style="fill:#000"/>
        <path data-name="패스 3" d="M116.37 24.186a3.92 3.92 0 1 0 3.86 3.929 3.828 3.828 0 0 0-3.86-3.929" transform="translate(-71.352 -15.297)" style="fill:#000"/>
    </g>
</svg>
