<svg xmlns="http://www.w3.org/2000/svg" width="122.948" height="23.198" viewBox="0 0 122.948 23.198">
    <defs>
        <clipPath id="67wcobok1a">
            <path data-name="사각형 26" style="fill:none" d="M0 0h122.948v23.198H0z"/>
        </clipPath>
    </defs>
    <g data-name="그룹 3" style="clip-path:url(#67wcobok1a)">
        <path data-name="패스 25" d="M23.258 10.083 14.629.968A3.314 3.314 0 0 0 9.984.933L.957 10.175a3.449 3.449 0 0 0-.036 4.73l6.763 7.143a3.251 3.251 0 0 0 4.6.02l.007-.007 4.965-5.289-5.042-.2a1.394 1.394 0 0 0-1.051.436s-.328.337-.467.467a.73.73 0 0 1-.629.259.768.768 0 0 1-.593-.259l-3.882-4.1a1.161 1.161 0 0 1 .037-1.567l5.849-6.088a1.1 1.1 0 0 1 1.549.017l6.259 6.612a1.108 1.108 0 0 1 .184 1.254l-4.73 9.52 4.582.071.371.005 4.157-8.83a5.486 5.486 0 0 0 .565-1.874 3.417 3.417 0 0 0-1.154-2.412" style="fill:#070203"/>
        <path data-name="패스 26" d="M68.3 19.294h9.095v-3.981h-11.1a2.161 2.161 0 0 0-2.124 2.187v11.824a2.161 2.161 0 0 0 2.122 2.192h11.1v-3.981H68.3a.194.194 0 0 1-.189-.2v-2.129h8.6v-3.585H68.11v-2.13a.194.194 0 0 1 .189-.2" transform="translate(-35.049 -8.364)" style="fill:#070203"/>
        <path data-name="패스 27" d="M245.913 19.294h9.095v-3.981h-11.1a2.161 2.161 0 0 0-2.122 2.192v11.819a2.161 2.161 0 0 0 2.122 2.192h11.1v-3.981h-9.095a.194.194 0 0 1-.189-.2v-2.129h8.6v-3.585h-8.595v-2.13a.194.194 0 0 1 .189-.2" transform="translate(-132.061 -8.364)" style="fill:#070203"/>
        <path data-name="사각형 24" transform="translate(74.259 1.462)" style="fill:#070203" d="M0 0h3.953v4.025H0z"/>
        <path data-name="사각형 25" transform="translate(74.259 6.947)" style="fill:#070203" d="M0 0h3.953v16.205H0z"/>
        <path data-name="패스 28" d="M186.433 15.309H178.7a2.188 2.188 0 0 0-2.143 2.226v13.978h4.188v-4.892h5.688a3.758 3.758 0 0 0 3.679-3.824v-3.663a3.759 3.759 0 0 0-3.679-3.825m-.069 4.141v3.03a.2.2 0 0 1-.194.2h-5.25a.19.19 0 0 1-.175-.131v-3.168a.19.19 0 0 1 .175-.13h5.249a.2.2 0 0 1 .194.2" transform="translate(-96.434 -8.362)" style="fill:#070203"/>
        <path data-name="패스 29" d="M135.718 27.518h8.5v4h-10.506a2.165 2.165 0 0 1-2.122-2.2v-14h3.938v12a.194.194 0 0 0 .189.2" transform="translate(-71.873 -8.363)" style="fill:#070203"/>
        <path data-name="패스 30" d="M214.761 27.518h8.1v4h-10.106a2.165 2.165 0 0 1-2.122-2.2v-14h3.94v12a.194.194 0 0 0 .189.2" transform="translate(-115.046 -8.363)" style="fill:#070203"/>
        <path data-name="패스 31" d="M101.47 31.514v-11.97a.2.2 0 0 1 .192-.2h5.256a.194.194 0 0 1 .194.194v11.976h3.955V19.072a3.727 3.727 0 0 0-3.682-3.762h-7.726a2.171 2.171 0 0 0-2.144 2.19v14.016z" transform="translate(-53.262 -8.362)" style="fill:#070203"/>
    </g>
</svg>
