<svg xmlns="http://www.w3.org/2000/svg" width="453.663" height="77.644" viewBox="0 0 453.663 77.644">
    <defs>
        <linearGradient id="d4ai671vda" x1=".5" x2=".5" y2="1" gradientUnits="objectBoundingBox">
            <stop offset="0" stop-color="#34cb98"/>
            <stop offset="1" stop-color="#1fc25b"/>
        </linearGradient>
        <linearGradient id="lqly7z5mgb" x1=".5" x2=".5" y2="1" gradientUnits="objectBoundingBox">
            <stop offset="0" stop-color="#01b2b4"/>
            <stop offset=".123" stop-color="#01b5aa"/>
            <stop offset=".328" stop-color="#01c091"/>
            <stop offset=".398" stop-color="#02c587"/>
            <stop offset=".825" stop-color="#67c448"/>
            <stop offset=".994" stop-color="#75c133"/>
        </linearGradient>
    </defs>
    <g data-name="그룹 10">
        <path data-name="패스 16" d="M-771.329-779.525a44.968 44.968 0 0 0-1.731-7.535 26.149 26.149 0 0 0-6.215-10.3 26.279 26.279 0 0 0-10.222-6.2 50.667 50.667 0 0 0-11.011-2.2 80.065 80.065 0 0 0-10.405-.472 90.474 90.474 0 0 0-11.014.965 39.232 39.232 0 0 0-8.641 2.208 25.106 25.106 0 0 0-10.375 7.362 27.687 27.687 0 0 0-5.463 11.425 57.021 57.021 0 0 0-1.308 7.543c-.238 2.383-.5 4.769-.591 7.159a70.224 70.224 0 0 0 1.094 15.264 39.213 39.213 0 0 0 2.552 8.871 25.446 25.446 0 0 0 6.779 9.27 27.829 27.829 0 0 0 12.548 5.975c2.023.429 4.078.737 6.132.986 2.215.269 4.444.5 6.673.574 2.472.078 4.951-.023 7.426-.091a71.152 71.152 0 0 0 9.037-.946 34.165 34.165 0 0 0 8.564-2.433 25.848 25.848 0 0 0 9.682-7.268 28.453 28.453 0 0 0 5.236-10.059 50.848 50.848 0 0 0 1.48-7.342 74.71 74.71 0 0 0 .735-9.308 76.814 76.814 0 0 0-.962-13.448z" transform="translate(848.357 806.248)" style="fill:url(#d4ai671vda)"/>
        <g data-name="그룹 6" transform="translate(915.831 1183.508)">
            <path data-name="패스 17" d="M-862.449-1158.582h-5.167c-.167-.189-.335-.387-.511-.578-.9-.977-1.8-1.946-2.693-2.932a2.361 2.361 0 0 0-1.873-.835q-3.91.024-7.82-.013a2.435 2.435 0 0 0-1.981.907c-1.014 1.157-2.068 2.279-3.137 3.451h-.761c-2.133 0-4.266-.01-6.4.007a5.738 5.738 0 0 0-1.474.168 2.987 2.987 0 0 0-2.066 2.977c.024 7.24.016 14.479.014 21.718h-.014v7.279h2.737V-1152.994c0-.944-.027-1.878.023-2.87h.775c2.251-.006 4.5-.041 6.753 0a3.308 3.308 0 0 0 2.74-1.213c.927-1.073 1.925-2.086 2.87-3.1h7.655l.541.58c.836.905 1.675 1.808 2.506 2.717a2.9 2.9 0 0 0 2.258 1c3.175-.007 6.351.013 9.526.019.181 0 .362-.034.565-.055v-2.661c-1.717-.006-3.391-.005-5.066-.005z" style="fill:#fff"/>
            <path data-name="패스 18" d="M-813.625-1079.556h-2.725v17.082c0 .308.009.617 0 .924a3.83 3.83 0 0 1-3.065 3.838 5.885 5.885 0 0 1-1.2.073q-11.946.006-23.891 0h-.866v2.7c.226.012.39.029.554.029h25.242a5.618 5.618 0 0 0 2.009-.385 6.065 6.065 0 0 0 3.938-5.859q.017-5.9 0-11.794z" transform="translate(-43.706 -71.521)" style="fill:#fff"/>
            <path data-name="패스 19" d="M-818.136-1075.136a9.7 9.7 0 0 1-6.814-2.814 9.635 9.635 0 0 1-2.933-6.861 9.645 9.645 0 0 1 2.826-6.894 9.8 9.8 0 0 1 6.877-2.915h.024a9.719 9.719 0 0 1 6.977 2.933 9.541 9.541 0 0 1 2.769 6.786 9.428 9.428 0 0 1-2.723 6.776 9.851 9.851 0 0 1-6.912 2.988zm0-16.754a7.021 7.021 0 0 0-7.013 7.013 7.021 7.021 0 0 0 7.013 7.013 7.021 7.021 0 0 0 7.013-7.013 7.021 7.021 0 0 0-7.011-7.013z" transform="translate(-58.71 -58.601)" style="fill:#fff"/>
            <circle data-name="타원 11" cx="1.647" cy="1.647" r="1.647" transform="translate(-867.295 -1136.033)" style="fill:#fff"/>
        </g>
    </g>
    <g transform="translate(1571.349 1928.968)">
        <path data-name="패스 75" d="M-1466.247-1864.964c-.156 0-.311 0-.467-.006h-.054a22.116 22.116 0 0 1-6.951-1.118 14.163 14.163 0 0 1-5.061-2.734l1.7-4.163a16.172 16.172 0 0 0 4.478 2.452 16.624 16.624 0 0 0 5.874 1.093c.2.013.424.022.65.022a9.725 9.725 0 0 0 4.893-1.322 4.261 4.261 0 0 0 1.978-3.668 3.754 3.754 0 0 0-1.114-2.765 7.246 7.246 0 0 0-2.657-1.618c-1-.365-2.4-.786-4.135-1.251a45.048 45.048 0 0 1-5.86-1.869 9.359 9.359 0 0 1-3.691-2.817 7.977 7.977 0 0 1-1.525-5.134 9.448 9.448 0 0 1 1.372-5.02 9.468 9.468 0 0 1 4.135-3.573 15.819 15.819 0 0 1 6.43-1.357c.156 0 .313 0 .47.007a20.809 20.809 0 0 1 5.642.776 14.776 14.776 0 0 1 4.466 2.025l-1.561 4.176a18.153 18.153 0 0 0-4.024-1.8 15.571 15.571 0 0 0-4.553-.715 8.54 8.54 0 0 0-.643-.024 9.09 9.09 0 0 0-4.823 1.382 4.541 4.541 0 0 0-1.92 3.812 3.652 3.652 0 0 0 1.118 2.741 7.356 7.356 0 0 0 2.65 1.589c1.005.366 2.4.788 4.139 1.249a40.423 40.423 0 0 1 5.788 1.844 9.638 9.638 0 0 1 3.721 2.82 7.806 7.806 0 0 1 1.521 5.059 9.309 9.309 0 0 1-1.371 5 9.476 9.476 0 0 1-4.157 3.548 15.915 15.915 0 0 1-6.458 1.359z" transform="translate(5.771 -6.322)" style="fill:#fff"/>
        <path data-name="패스 76" d="M-1390.793-1868.8v-35.938h4.813v14.15l.781-.895a8.884 8.884 0 0 1 3.325-2.381 11.419 11.419 0 0 1 4.3-.835h.157c.171-.007.316-.01.46-.01a9.34 9.34 0 0 1 6.61 2.764 11.666 11.666 0 0 1 2.668 8.351V-1868.816h-4.813v-13.933a8.339 8.339 0 0 0-1.59-5.505l-.013-.018-.016-.017a5.791 5.791 0 0 0-4.3-1.918q-.16 0-.322.009-.152-.007-.3-.007a6.761 6.761 0 0 0-5 2.211l-.021.025a9.094 9.094 0 0 0-1.911 6.236v12.932z" transform="translate(-53.856 -2.983)" style="fill:#fff"/>
        <path data-name="패스 77" d="M-1294.379-1847.429h-.194a12.484 12.484 0 0 1-6.247-1.678 11.683 11.683 0 0 1-4.465-4.66 14.192 14.192 0 0 1-1.614-6.81 14.069 14.069 0 0 1 1.614-6.8 11.734 11.734 0 0 1 4.462-4.636 12.493 12.493 0 0 1 6.251-1.679h.39a12.594 12.594 0 0 1 6.281 1.681 11.739 11.739 0 0 1 4.462 4.637 14.07 14.07 0 0 1 1.614 6.78 14.22 14.22 0 0 1-1.616 6.826 11.7 11.7 0 0 1-4.461 4.661 12.6 12.6 0 0 1-6.276 1.677 2.694 2.694 0 0 1-.201.001zm-7.656-13.153a9.112 9.112 0 0 0 2.134 6.291 7.064 7.064 0 0 0 5.335 2.434h.365a7.132 7.132 0 0 0 5.359-2.426 9.052 9.052 0 0 0 2.156-6.3 9.05 9.05 0 0 0-2.151-6.292 7.14 7.14 0 0 0-5.364-2.431h-.361a7.061 7.061 0 0 0-5.33 2.428 9.12 9.12 0 0 0-2.143 6.296z" transform="translate(-110.708 -24.026)" style="fill:#fff"/>
        <path data-name="패스 78" d="M-1216.518-1837.414v-35.243h4.539v4.382l.8-1.088a8.5 8.5 0 0 1 3.319-2.688 10.459 10.459 0 0 1 4.268-.9H-1203.254a11.682 11.682 0 0 1 5.934 1.621 11.25 11.25 0 0 1 4.229 4.59 14.778 14.778 0 0 1 1.544 6.888 14.956 14.956 0 0 1-1.545 6.933 11.2 11.2 0 0 1-4.234 4.608 11.67 11.67 0 0 1-5.936 1.623h-.189a9.18 9.18 0 0 1-.389.008 8.994 8.994 0 0 1-7.074-3.412l-.792-1v13.682zm12.589-13.7a7.056 7.056 0 0 0 5.211-2.295h.007l.141-.159a9.12 9.12 0 0 0 2.137-6.292 9.116 9.116 0 0 0-2.137-6.29 7.065 7.065 0 0 0-5.335-2.434H-1204.191a7.3 7.3 0 0 0-3.833 1.085 7.565 7.565 0 0 0-2.766 3.089 10.012 10.012 0 0 0-1 4.569 9.98 9.98 0 0 0 1 4.552 7.543 7.543 0 0 0 2.762 3.086 7.31 7.31 0 0 0 3.834 1.086h.1a2.3 2.3 0 0 0 .165.004z" transform="translate(-171.96 -24.521)" style="fill:#fff"/>
        <path data-name="패스 79" d="M-1127.8-1837.414v-35.243h4.539v4.382l.8-1.088a8.5 8.5 0 0 1 3.319-2.688 10.454 10.454 0 0 1 4.268-.9H-1114.542a11.684 11.684 0 0 1 5.935 1.621 11.254 11.254 0 0 1 4.23 4.59 14.783 14.783 0 0 1 1.544 6.888 14.95 14.95 0 0 1-1.545 6.933 11.2 11.2 0 0 1-4.234 4.608 11.672 11.672 0 0 1-5.937 1.623h-.188a9.123 9.123 0 0 1-.387.008 8.991 8.991 0 0 1-7.073-3.412l-.792-1v13.683zm12.585-13.7a7.056 7.056 0 0 0 5.211-2.295h.007l.14-.159a9.115 9.115 0 0 0 2.137-6.292 9.113 9.113 0 0 0-2.137-6.29 7.064 7.064 0 0 0-5.335-2.434H-1115.478a7.3 7.3 0 0 0-3.833 1.085 7.567 7.567 0 0 0-2.766 3.089 10.015 10.015 0 0 0-1 4.569 9.986 9.986 0 0 0 1 4.552 7.54 7.54 0 0 0 2.762 3.086 7.307 7.307 0 0 0 3.833 1.086h.1c.055.004.11.004.165.004z" transform="translate(-232.081 -24.521)" style="fill:#fff"/>
        <path data-name="패스 80" d="M-1038.8-1871.269v-25.615h4.812v25.615zm2.442-30.869h-.093a3.079 3.079 0 0 1-2.2-.934 3.2 3.2 0 0 1-.925-2.335 3.222 3.222 0 0 1 .922-2.354 3.079 3.079 0 0 1 2.2-.935h.179a3.134 3.134 0 0 1 2.195.891 2.97 2.97 0 0 1 .915 2.225 3.48 3.48 0 0 1-.91 2.467 2.968 2.968 0 0 1-2.2.975z" transform="translate(-291.871 -.302)" style="fill:#fff"/>
        <path data-name="패스 81" d="M-1006.569-1847.031v-25.615h4.54v4.29l.8-1.04a8.567 8.567 0 0 1 3.383-2.643 11.433 11.433 0 0 1 4.474-.907h.18c.163-.006.3-.008.437-.008a9.341 9.341 0 0 1 6.621 2.776 11.663 11.663 0 0 1 2.669 8.352v14.779h-4.814v-13.934a8.331 8.331 0 0 0-1.591-5.506l-.013-.017-.015-.017a5.781 5.781 0 0 0-4.3-1.918c-.108 0-.215 0-.323.009s-.2-.007-.3-.007a6.759 6.759 0 0 0-4.995 2.211l-.021.025a9.093 9.093 0 0 0-1.911 6.236v12.933z" transform="translate(-314.239 -24.524)" style="fill:#fff"/>
        <path data-name="패스 82" d="M-910.124-1837.1a22.11 22.11 0 0 1-6.407-.949 13.4 13.4 0 0 1-4.766-2.483l2.122-3.873a12.3 12.3 0 0 0 3.766 2.042 15.059 15.059 0 0 0 5.071.891c.229.019.462.03.693.03a8.183 8.183 0 0 0 5.511-2.129l.026-.023.022-.027a8.975 8.975 0 0 0 1.971-6.352v-2.6l-.785.938a8.976 8.976 0 0 1-3.392 2.505 11.158 11.158 0 0 1-4.308.861h-.292a11.94 11.94 0 0 1-5.891-1.556 11.13 11.13 0 0 1-4.253-4.369 13.18 13.18 0 0 1-1.567-6.48 13.057 13.057 0 0 1 1.567-6.473 11.007 11.007 0 0 1 4.252-4.316 12.1 12.1 0 0 1 5.891-1.534h.32a11.48 11.48 0 0 1 4.488.909 8.544 8.544 0 0 1 3.453 2.736l.8 1.076v-4.421h4.53v22.038c0 9.119-4.152 13.551-12.7 13.551zm-7.619-23.565a7.964 7.964 0 0 0 2.2 5.792 7.69 7.69 0 0 0 5.413 2.25h.507a7.64 7.64 0 0 0 4.391-1.4l-.051.249 1.06-1.1a7.967 7.967 0 0 0 2.2-5.792 7.809 7.809 0 0 0-2.2-5.718 7.585 7.585 0 0 0-5.384-2.225h-.524a7.634 7.634 0 0 0-5.4 2.22 7.814 7.814 0 0 0-2.212 5.726z" transform="translate(-371.139 -24.499)" style="fill:#fff"/>
        <path data-name="패스 83" d="M-704.7-1848.318a16.232 16.232 0 0 1-7.8-2 13.829 13.829 0 0 1-5.471-5.6 16.82 16.82 0 0 1-1.917-8.082 17.08 17.08 0 0 1 1.86-8 13.9 13.9 0 0 1 5.2-5.6 14.2 14.2 0 0 1 7.288-2.014H-705.132a13.886 13.886 0 0 1 7.15 1.982 13.554 13.554 0 0 1 5.081 5.582 18.049 18.049 0 0 1 1.806 8.236 23.82 23.82 0 0 1-.1 2.077l-.035.458h-21.207a7.656 7.656 0 0 0 2.648 4.3 8.61 8.61 0 0 0 5.262 1.8q.145 0 .29-.006h.276a9.015 9.015 0 0 0 6.756-3.048l.391-.442 4.024 5.029-.236.308a12.1 12.1 0 0 1-4.833 3.756 16.09 16.09 0 0 1-6.259 1.26h-.26c-.096.003-.211.004-.322.004zm6.494-18.555a7.933 7.933 0 0 0-2.277-4.359 6.7 6.7 0 0 0-4.641-1.856h-.386a6.787 6.787 0 0 0-4.652 1.837 8.019 8.019 0 0 0-2.339 4.377z" transform="translate(-504.827 -18.274)" style="fill:#fff"/>
        <path data-name="패스 84" d="M-626.653-1848.674v-30.578h7.053v3a10.542 10.542 0 0 1 3.279-2.238 13.749 13.749 0 0 1 5.39-1.1h.216c.143-.007.317-.011.49-.011a11.414 11.414 0 0 1 8.112 3.413l.026.029a14 14 0 0 1 3.223 10.03v17.433h-7.36v-16.6a8.307 8.307 0 0 0-1.57-5.486 5.462 5.462 0 0 0-4.043-1.794c-.109 0-.218 0-.328.01h-.054a6.749 6.749 0 0 0-.318-.008 6.55 6.55 0 0 0-4.829 2.131 9.159 9.159 0 0 0-1.914 6.267v15.5z" transform="translate(-565.657 -18.289)" style="fill:#fff"/>
        <path data-name="패스 85" d="M-523.9-1848.324c-.276 0-.554-.007-.831-.023h-.022a23.054 23.054 0 0 1-6.591-.962 16.031 16.031 0 0 1-5.19-2.454l-.335-.24 2.866-6.176.486.343a14.549 14.549 0 0 0 4.261 2.063 16.423 16.423 0 0 0 4.935.784c5.209 0 5.209-2.087 5.209-2.774a1.7 1.7 0 0 0-1.12-1.69 23.045 23.045 0 0 0-4.566-1.141 35.77 35.77 0 0 1-5.557-1.287 8.871 8.871 0 0 1-3.9-2.676 7.918 7.918 0 0 1-1.672-5.339 8.623 8.623 0 0 1 3.433-7.121 14.285 14.285 0 0 1 8.3-2.641q.383 0 .766.021a23.693 23.693 0 0 1 5.7.707 15.479 15.479 0 0 1 4.723 1.915l.376.231-2.867 6.179-.478-.3a13.649 13.649 0 0 0-7.345-2.141h-.212a8.063 8.063 0 0 0-.467-.014 7.583 7.583 0 0 0-3.523.872 2.252 2.252 0 0 0-1.186 1.974 1.9 1.9 0 0 0 1.233 1.886 22.446 22.446 0 0 0 4.722 1.279 35.418 35.418 0 0 1 5.423 1.286 8.814 8.814 0 0 1 3.814 2.587 7.676 7.676 0 0 1 1.624 5.208 8.384 8.384 0 0 1-3.506 7.04 15.091 15.091 0 0 1-8.503 2.604z" transform="translate(-624.007 -18.25)" style="fill:#fff"/>
        <path data-name="패스 86" d="M-799.536-1865.164v-39.766h7.616v32.685h18.64v7.081z" transform="translate(-453.303 -1.825)" style="fill:url(#lqly7z5mgb)"/>
        <circle data-name="Ellipse 21" cx="6.144" cy="6.144" r="6.144" transform="translate(-1129.974 -1879.765)" style="fill:url(#lqly7z5mgb)"/>
    </g>
</svg>
