<svg xmlns="http://www.w3.org/2000/svg" width="10" height="10.785" viewBox="0 0 10 10.785">
    <defs>
        <clipPath id="olhvmuaq8a">
            <path data-name="사각형 161" style="fill:#292929" d="M0 0h10v10.785H0z"/>
        </clipPath>
    </defs>
    <g data-name="그룹 85" style="clip-path:url(#olhvmuaq8a)">
        <path data-name="패스 147" d="M4.989 115.518H1.521A1.451 1.451 0 0 1 0 113.936a3.568 3.568 0 0 1 3.493-3.465q1.5-.036 3 0a3.573 3.573 0 0 1 3.5 3.484 1.454 1.454 0 0 1-1.515 1.563H4.989" transform="translate(0 -104.733)" style="fill:#292929"/>
        <path data-name="패스 148" d="M52.269 2.569a2.557 2.557 0 1 1-5.113-.049 2.557 2.557 0 0 1 5.113.049" transform="translate(-44.714 -.001)" style="fill:#292929"/>
    </g>
</svg>
