<svg xmlns="http://www.w3.org/2000/svg" xmlns:xlink="http://www.w3.org/1999/xlink" width="31" height="31" viewBox="0 0 31 31">
  <defs>
    <style>
      .cls-1, .cls-3 {
        fill: none;
      }

      .cls-1 {
        stroke: rgba(0,0,0,0);
      }

      .cls-2 {
        clip-path: url(#clip-path);
      }

      .cls-3 {
        stroke: #292929;
        stroke-linecap: round;
        stroke-linejoin: round;
        stroke-width: 1.5px;
      }
    </style>
    <clipPath id="clip-path">
      <rect id="사각형_4712" data-name="사각형 4712" class="cls-1" width="30" height="30"/>
    </clipPath>
  </defs>
  <g id="icon_home_off" transform="translate(-166.75 -1738)">
    <g id="그룹_4146" data-name="그룹 4146" transform="translate(167.25 1738.5)">
      <rect id="사각형_4711" data-name="사각형 4711" class="cls-1" width="30" height="30"/>
      <g id="그룹_4145" data-name="그룹 4145">
        <g id="그룹_4144" data-name="그룹 4144" class="cls-2">
          <path id="패스_11307" data-name="패스 11307" class="cls-3" d="M24.421,10.243,15.493,2.725a1.66,1.66,0,0,0-2.349,0L4.216,10.243a1.654,1.654,0,0,0-.467,1.389c0,.012,0,.024,0,.037V23.853a1.661,1.661,0,0,0,1.661,1.661H9.051a1.39,1.39,0,0,0,1.39-1.39V17.276a1.635,1.635,0,0,1,1.63-1.63h4.494a1.634,1.634,0,0,1,1.63,1.63v6.848a1.39,1.39,0,0,0,1.39,1.39H23.23a1.661,1.661,0,0,0,1.661-1.661V11.669c0-.013,0-.024,0-.037A1.652,1.652,0,0,0,24.421,10.243Z" transform="translate(0.682 1.124)"/>
        </g>
      </g>
    </g>
  </g>
</svg>
