<svg xmlns="http://www.w3.org/2000/svg" width="24" height="24" viewBox="0 0 24 24">
    <path data-name="사각형 7" style="fill:none" d="M0 0h24v24H0z"/>
    <g data-name="그룹 1">
        <path data-name="사각형 8" style="fill:#292929" d="M0 0h5v5H0z" transform="translate(3 3)"/>
        <path data-name="사각형 13" transform="translate(3 9.5)" style="fill:#292929" d="M0 0h5v5H0z"/>
        <path data-name="사각형 16" transform="translate(3 16)" style="fill:#292929" d="M0 0h5v5H0z"/>
        <path data-name="사각형 9" transform="translate(9.5 3)" style="fill:#292929" d="M0 0h5v5H0z"/>
        <path data-name="사각형 12" transform="translate(9.5 9.5)" style="fill:#292929" d="M0 0h5v5H0z"/>
        <path data-name="사각형 15" transform="translate(9.5 16)" style="fill:#292929" d="M0 0h5v5H0z"/>
        <path data-name="사각형 10" transform="translate(16 3)" style="fill:#292929" d="M0 0h5v5H0z"/>
        <path data-name="사각형 11" transform="translate(16 9.5)" style="fill:#292929" d="M0 0h5v5H0z"/>
        <path data-name="사각형 14" transform="translate(16 16)" style="fill:#292929" d="M0 0h5v5H0z"/>
    </g>
</svg>
