<svg xmlns="http://www.w3.org/2000/svg" width="30" height="30" viewBox="0 0 30 30">
    <defs>
        <clipPath id="s39jwatxua">
            <path data-name="사각형 4714" style="fill:none" d="M0 0h30v30H0z"/>
        </clipPath>
    </defs>
    <path data-name="사각형 4713" style="fill:none" d="M0 0h30v30H0z"/>
    <g data-name="그룹 4149">
        <g data-name="그룹 4148" style="clip-path:url(#s39jwatxua)">
            <path data-name="패스 11308" d="M12.1 29.7V18.143a.763.763 0 0 0-.761-.761H5.261a.763.763 0 0 0-.761.761V29.7z" transform="translate(-.9 -3.476)" style="stroke:#292929;stroke-linecap:round;stroke-linejoin:round;stroke-width:1.5px;fill:none"/>
            <path data-name="패스 11309" d="M21.6 28.226V10.754a.763.763 0 0 0-.761-.761h-6.078a.763.763 0 0 0-.761.761v17.472z" transform="translate(-2.8 -1.999)" style="stroke:#292929;stroke-linecap:round;stroke-linejoin:round;stroke-width:1.5px;fill:none"/>
            <path data-name="패스 11310" d="M31.1 27.17V5.477a.763.763 0 0 0-.761-.762h-6.078a.763.763 0 0 0-.761.762V27.17z" transform="translate(-4.7 -.943)" style="stroke:#292929;stroke-linecap:round;stroke-linejoin:round;stroke-width:1.5px;fill:none"/>
        </g>
    </g>
</svg>
