<svg xmlns="http://www.w3.org/2000/svg" width="30" height="30" viewBox="0 0 30 30">
    <defs>
        <clipPath id="gudgviuh3a">
            <path data-name="사각형 4718" style="fill:none" d="M0 0h30v30H0z"/>
        </clipPath>
    </defs>
    <path data-name="사각형 4717" style="fill:none" d="M0 0h30v30H0z"/>
    <g data-name="그룹 4155">
        <g data-name="그룹 4154" style="clip-path:url(#gudgviuh3a)">
            <path data-name="패스 11312" d="M16.347 13.35c-5.308 0-9.612-1.921-9.612-4.293v5.4c0 2.372 4.3 4.294 9.612 4.294s9.613-1.922 9.613-4.294v-5.4c0 2.372-4.305 4.293-9.613 4.293z" transform="translate(-1.347 -1.811)" style="stroke:#292929;stroke-linecap:round;stroke-linejoin:round;stroke-width:1.5px;fill:none"/>
            <path data-name="패스 11313" d="M16.347 3.693c-5.308 0-9.612 1.922-9.612 4.291s4.3 4.293 9.612 4.293 9.613-1.921 9.613-4.293-4.305-4.291-9.613-4.291z" transform="translate(-1.347 -.739)" style="stroke:#292929;stroke-linecap:round;stroke-linejoin:round;stroke-width:1.5px;fill:none"/>
            <path data-name="패스 11314" d="M6.735 15.317v5.4c0 2.37 4.3 4.292 9.612 4.292s9.613-1.922 9.613-4.292v-5.4" transform="translate(-1.347 -3.063)" style="stroke:#292929;stroke-linecap:round;stroke-linejoin:round;stroke-width:1.5px;fill:none"/>
            <path data-name="패스 11315" d="M6.735 21.69v5.4c0 2.371 4.3 4.294 9.612 4.294s9.613-1.923 9.613-4.294v-5.4" transform="translate(-1.347 -4.338)" style="stroke:#292929;stroke-linecap:round;stroke-linejoin:round;stroke-width:1.5px;fill:none"/>
        </g>
    </g>
</svg>
