<svg xmlns="http://www.w3.org/2000/svg" width="30" height="30" viewBox="0 0 30 30">
    <defs>
        <clipPath id="4qnv64ppga">
            <path data-name="사각형 4720" style="fill:none" d="M0 0h30v30H0z"/>
        </clipPath>
    </defs>
    <path data-name="사각형 4719" style="fill:none" d="M0 0h30v30H0z"/>
    <path data-name="선 400" transform="translate(8.211 10.573)" style="stroke:#292929;stroke-linecap:round;stroke-linejoin:round;stroke-width:1.5px;fill:none" d="M0 0h13.578"/>
    <path data-name="선 401" transform="translate(8.211 16.919)" style="stroke:#292929;stroke-linecap:round;stroke-linejoin:round;stroke-width:1.5px;fill:none" d="M0 0h13.578"/>
    <g data-name="그룹 4157">
        <g data-name="마스크 그룹 5" style="clip-path:url(#4qnv64ppga)">
            <path data-name="패스 11316" d="M24.909 3.729H6.159a3.5 3.5 0 0 0-3.488 3.489v13.747a3.5 3.5 0 0 0 3.488 3.489h9.609l-.322 2.257a.92.92 0 0 0 1.374.924l5.453-3.181h2.638a3.5 3.5 0 0 0 3.489-3.489V7.218a3.5 3.5 0 0 0-3.491-3.489z" transform="translate(-.534 -.746)" style="stroke:#292929;stroke-linecap:round;stroke-linejoin:round;stroke-width:1.5px;fill:none"/>
        </g>
    </g>
</svg>
