<svg xmlns="http://www.w3.org/2000/svg" width="31" height="31" viewBox="0 0 31 31">
    <defs>
        <clipPath id="7vxkzwn22a">
            <path data-name="사각형 4712" style="fill:none;stroke:transparent" d="M0 0h30v30H0z"/>
        </clipPath>
    </defs>
    <g data-name="그룹 4146">
        <path data-name="사각형 4711" style="fill:none;stroke:transparent" d="M0 0h30v30H0z" transform="translate(.5 .5)"/>
        <g data-name="그룹 4145">
            <g data-name="그룹 4144" style="clip-path:url(#7vxkzwn22a)" transform="translate(.5 .5)">
                <path data-name="패스 11307" d="m24.421 10.243-8.928-7.518a1.66 1.66 0 0 0-2.349 0l-8.928 7.518a1.654 1.654 0 0 0-.467 1.389v12.221a1.661 1.661 0 0 0 1.661 1.661h3.641a1.39 1.39 0 0 0 1.39-1.39v-6.848a1.635 1.635 0 0 1 1.63-1.63h4.494a1.634 1.634 0 0 1 1.63 1.63v6.848a1.39 1.39 0 0 0 1.39 1.39h3.645a1.661 1.661 0 0 0 1.661-1.661V11.632a1.652 1.652 0 0 0-.47-1.389z" transform="translate(.682 1.124)" style="fill:#ffc600"/>
            </g>
        </g>
    </g>
</svg>
