<svg xmlns="http://www.w3.org/2000/svg" width="303" height="119" viewBox="0 0 303 119">
    <text data-name="15일" transform="translate(22 116)" style="font-size:10px;font-family:NotoSansCJKkr-Regular,Noto Sans CJK KR;fill:#292929"><tspan x="0" y="0">15일</tspan></text>
    <text data-name="16일" transform="translate(62 116)" style="font-size:10px;font-family:NotoSansCJKkr-Regular,Noto Sans CJK KR;fill:#292929"><tspan x="0" y="0">16일</tspan></text>
    <text data-name="17일" transform="translate(102 116)" style="font-size:10px;font-family:NotoSansCJKkr-Regular,Noto Sans CJK KR;fill:#292929"><tspan x="0" y="0">17일</tspan></text>
    <text data-name="18일" transform="translate(142 116)" style="font-size:10px;font-family:NotoSansCJKkr-Regular,Noto Sans CJK KR;fill:#292929"><tspan x="0" y="0">18일</tspan></text>
    <text data-name="19일" transform="translate(182 116)" style="font-size:10px;font-family:NotoSansCJKkr-Regular,Noto Sans CJK KR;fill:#292929"><tspan x="0" y="0">19일</tspan></text>
    <text data-name="20일" transform="translate(222 116)" style="font-size:10px;font-family:NotoSansCJKkr-Regular,Noto Sans CJK KR;fill:#292929"><tspan x="0" y="0">20일</tspan></text>
    <text data-name="21일" transform="translate(262 116)" style="font-size:10px;font-family:NotoSansCJKkr-Regular,Noto Sans CJK KR;fill:#292929"><tspan x="0" y="0">21일</tspan></text>
    <g data-name="그룹 91">
        <path data-name="사각형 50" transform="translate(0 31)" style="opacity:.3;fill:#292929" d="M0 0h303v1H0z"/>
        <path data-name="사각형 70" style="opacity:.3;fill:#292929" d="M0 0h303v1H0z"/>
        <path data-name="사각형 51" transform="translate(0 62)" style="opacity:.3;fill:#292929" d="M0 0h303v1H0z"/>
        <path data-name="사각형 52" transform="translate(0 93)" style="opacity:.7;fill:#292929" d="M0 0h303v1H0z"/>
    </g>
    <path data-name="패스 150" d="M916 366v41.333" transform="translate(-883.5 -314)" style="stroke:#857e7e;stroke-width:.5px;stroke-dasharray:3 2;fill:none"/>
    <path data-name="패스 152" d="M916 366v41.333" transform="translate(-803.5 -314)" style="stroke:#857e7e;stroke-width:.5px;stroke-dasharray:3 2;fill:none"/>
    <path data-name="패스 155" d="M916 366v41.333" transform="translate(-684 -314)" style="stroke:#857e7e;stroke-width:.5px;stroke-dasharray:3 2;fill:none"/>
    <path data-name="패스 154" d="M916 366v53.333" transform="translate(-724 -326)" style="stroke:#857e7e;stroke-width:.5px;stroke-dasharray:3 2;fill:none"/>
    <path data-name="패스 151" d="M916 366v67.833" transform="translate(-843.5 -340.5)" style="stroke:#857e7e;stroke-width:.5px;stroke-dasharray:3 2;fill:none"/>
    <path data-name="패스 153" d="M916 366v80.833" transform="translate(-763.5 -353.5)" style="stroke:#857e7e;stroke-width:.5px;stroke-dasharray:3 2;fill:none"/>
    <path data-name="패스 156" d="M916 366v80.833" transform="translate(-644 -353.5)" style="stroke:#857e7e;stroke-width:.5px;stroke-dasharray:3 2;fill:none"/>
    <path data-name="패스 157" d="m-589.667 689.333 40.667-28 39 28L-469.667 650-429 679.333l39 10L-350 650" transform="translate(622 -638)" style="stroke:#ffcd2a;fill:none"/>
    <g data-name="그룹 92">
        <g data-name="타원 4" transform="translate(27 46)" style="fill:#f2f4f6;stroke-width:1.5px;stroke:#ffcd2a">
            <circle cx="5" cy="5" r="5" style="stroke:none"/>
            <circle cx="5" cy="5" r="4.25" style="fill:none"/>
        </g>
        <g data-name="타원 18" transform="translate(67 19)" style="fill:#f2f4f6;stroke-width:1.5px;stroke:#ffcd2a">
            <circle cx="5" cy="5" r="5" style="stroke:none"/>
            <circle cx="5" cy="5" r="4.25" style="fill:none"/>
        </g>
        <g data-name="타원 19" transform="translate(107 46)" style="fill:#f2f4f6;stroke-width:1.5px;stroke:#ffcd2a">
            <circle cx="5" cy="5" r="5" style="stroke:none"/>
            <circle cx="5" cy="5" r="4.25" style="fill:none"/>
        </g>
        <g data-name="타원 22" transform="translate(227 46)" style="fill:#f2f4f6;stroke-width:1.5px;stroke:#ffcd2a">
            <circle cx="5" cy="5" r="5" style="stroke:none"/>
            <circle cx="5" cy="5" r="4.25" style="fill:none"/>
        </g>
        <g data-name="타원 23" transform="translate(267 8)" style="fill:#f2f4f6;stroke-width:1.5px;stroke:#ffcd2a">
            <circle cx="5" cy="5" r="5" style="stroke:none"/>
            <circle cx="5" cy="5" r="4.25" style="fill:none"/>
        </g>
        <g data-name="타원 21" transform="translate(187 37)" style="fill:#f2f4f6;stroke-width:1.5px;stroke:#ffcd2a">
            <circle cx="5" cy="5" r="5" style="stroke:none"/>
            <circle cx="5" cy="5" r="4.25" style="fill:none"/>
        </g>
        <g data-name="타원 20" transform="translate(147 8)" style="fill:#f2f4f6;stroke-width:1.5px;stroke:#ffcd2a">
            <circle cx="5" cy="5" r="5" style="stroke:none"/>
            <circle cx="5" cy="5" r="4.25" style="fill:none"/>
        </g>
    </g>
</svg>
