<svg xmlns="http://www.w3.org/2000/svg" width="106" height="106" viewBox="0 0 106 106">
    <defs>
        <clipPath id="6pzudei4ga">
            <path data-name="사각형 1890" style="fill:none" d="M0 0h106v106H0z"/>
        </clipPath>
    </defs>
    <g data-name="그룹 49">
        <g data-name="그룹 48" style="clip-path:url(#6pzudei4ga)">
            <path data-name="패스 1370" d="M52.749.831A51.918 51.918 0 1 1 .831 52.749 51.918 51.918 0 0 1 52.749.831" transform="translate(.251 .251)" style="fill:#ffc600"/>
            <path data-name="패스 1371" d="M53 106a53 53 0 1 1 53-53 53.06 53.06 0 0 1-53 53M53 2.163A50.836 50.836 0 1 0 103.836 53 50.893 50.893 0 0 0 53 2.163" transform="translate(0 .001)" style="fill:#ffc600"/>
            <path data-name="패스 1372" d="M15.21 81.185a.489.489 0 0 1-.061 0 1.08 1.08 0 0 1-1.019-1.139l1.082-19.47a19.042 19.042 0 0 1 24.73-16.83l2.992.941a19.227 19.227 0 0 0 11.615.013l3.164-.99a18.927 18.927 0 0 1 24.554 16.9l1.082 17.26a1.081 1.081 0 0 1-1.011 1.147 1.1 1.1 0 0 1-1.148-1.011l-1.082-17.259A16.766 16.766 0 0 0 58.36 45.774l-3.163.99a21.409 21.409 0 0 1-12.915-.014l-2.99-.941a16.88 16.88 0 0 0-21.923 14.9l-1.08 19.453a1.082 1.082 0 0 1-1.079 1.022" transform="translate(4.26 12.917)" style="fill:#fff"/>
            <path data-name="패스 1373" d="M30.479 30.041a14.251 14.251 0 1 1 28.5 0v2.15a4.1 4.1 0 0 1 3.055 3.879 4.2 4.2 0 0 1-4.326 4.056H57.6a14.259 14.259 0 0 1-25.734 0h-.116a4.2 4.2 0 0 1-4.326-4.056 4.1 4.1 0 0 1 3.055-3.879z" transform="translate(8.27 4.762)" style="fill-rule:evenodd;fill:#fff"/>
            <path data-name="패스 1374" d="m16.04 58.356-1.082 20.55 2.163 2.164 9.734 5.408 11.9 4.326h19.469L71.2 87.561l9.736-7.571 1.082-3.246-1.082-11.9-2.163-11.9-5.407-5.404-6.49-3.24-8.653 1.082-8.653 1.082-8.653-1.082-8.654-2.163-9.733 4.321z" transform="translate(4.511 13.032)" style="fill:#fff"/>
            <path data-name="패스 1375" d="M31.68 73.987h24.839a2.162 2.162 0 0 0 1.857-3.268l-11.6-19.48-.167-.254a3.008 3.008 0 0 0-5.185.254l-11.6 19.48a2.163 2.163 0 0 0 1.859 3.268" transform="translate(8.9 14.964)" style="fill:#ffc600"/>
            <path data-name="패스 1376" d="M56.77 75.319H31.931a3.245 3.245 0 0 1-2.788-4.9l11.6-19.482A4.023 4.023 0 0 1 44.14 48.8a4.085 4.085 0 0 1 3.626 1.848l.164.251 11.628 19.517a3.245 3.245 0 0 1-2.788 4.9M44.344 50.954h-.1a1.91 1.91 0 0 0-1.613 1.032L31 71.522a1.08 1.08 0 0 0 .929 1.633H56.77a1.08 1.08 0 0 0 .928-1.633L45.955 51.83a1.91 1.91 0 0 0-1.611-.876" transform="translate(8.649 14.714)" style="fill:#ffc600"/>
            <path data-name="패스 1378" d="M41.037 65.163a1.444 1.444 0 0 1-1.5-1.383v-8.234a1.5 1.5 0 0 1 3 0v8.234a1.444 1.444 0 0 1-1.5 1.383" transform="translate(12.463 15.837)" style="fill:#fff"/>
            <path data-name="패스 1379" d="M53 106a53 53 0 1 1 53-53 53.06 53.06 0 0 1-53 53M53 2.163A50.836 50.836 0 1 0 103.836 53 50.893 50.893 0 0 0 53 2.163" transform="translate(0 .001)" style="fill:#ffc600"/>
            <circle data-name="타원 4" cx="1.5" cy="1.5" r="1.5" transform="translate(52 83)" style="fill:#fff"/>
        </g>
    </g>
</svg>
