<svg data-name="그룹 55" xmlns="http://www.w3.org/2000/svg" width="106" height="106" viewBox="0 0 106 106">
    <defs>
        <clipPath id="ot0qi16nta">
            <path data-name="사각형 1896" style="fill:none" d="M0 0h106v106H0z"/>
        </clipPath>
    </defs>
    <g data-name="그룹 54" style="clip-path:url(#ot0qi16nta)">
        <path data-name="패스 1400" d="M53 1.082A51.918 51.918 0 1 1 1.082 53 51.918 51.918 0 0 1 53 1.082" style="fill:#fff"/>
        <path data-name="패스 1401" d="M53 106a53 53 0 1 1 53-53 53.06 53.06 0 0 1-53 53M53 2.163A50.836 50.836 0 1 0 103.837 53 50.894 50.894 0 0 0 53 2.163" style="fill:#ffc600"/>
        <path data-name="패스 1402" d="M24.256 34.229a8.771 8.771 0 0 1 17.542 0v1.324a2.523 2.523 0 0 1 1.88 2.386 2.582 2.582 0 0 1-2.663 2.5h-.07a8.773 8.773 0 0 1-15.834 0h-.072a2.582 2.582 0 0 1-2.661-2.5 2.521 2.521 0 0 1 1.878-2.386z" style="fill-rule:evenodd;fill:#ffc600"/>
        <path data-name="패스 1403" d="M41.8 35.553h-.541v.406l.392.113zm-.852 4.882.013-.541-.351-.008-.151.315zm-15.835 0 .487-.235-.151-.315-.348.008zm-.855-4.882.149.519.392-.113v-.406zm8.772-10.635a9.312 9.312 0 0 0-9.313 9.311H24.8A8.23 8.23 0 0 1 33.028 26zm9.311 9.311a9.311 9.311 0 0 0-9.311-9.311V26a8.229 8.229 0 0 1 8.229 8.229zm0 0h-1.084v1.324h1.082zm1.88 3.71a3.065 3.065 0 0 0-2.272-2.906l-.3 1.039a1.985 1.985 0 0 1 1.488 1.867zm-3.2 3.037a3.124 3.124 0 0 0 3.2-3.037h-1.084a2.043 2.043 0 0 1-2.122 1.955zm-.082 0h.082v-1.082h-.056zm-7.9 4.993a9.313 9.313 0 0 0 8.4-5.3l-.975-.468a8.232 8.232 0 0 1-7.429 4.686zm-8.406-5.3a9.314 9.314 0 0 0 8.406 5.3v-1.082A8.235 8.235 0 0 1 25.6 40.2zm.476-.775h-.059v1.082h.085zm-.059 0a2.042 2.042 0 0 1-2.12-1.955h-1.092a3.121 3.121 0 0 0 3.2 3.037zm-2.12-1.955a1.983 1.983 0 0 1 1.486-1.867l-.3-1.039a3.061 3.061 0 0 0-2.269 2.906zm.8-2.386h1.07v-1.324h-1.085z" style="fill:#ffc600"/>
        <path data-name="패스 1404" d="m17.15 56.017-.1 1.391-.664 11.982H51v-1.332l-.666-10.622-.024-.409a10.17 10.17 0 0 0-13.633-8.934l-.344.123a9.2 9.2 0 0 1-6.572-.1 9.212 9.212 0 0 0-12.609 7.9" style="fill:#ffc600"/>
        <path data-name="패스 1405" d="M51 70.471H16.386a1.079 1.079 0 0 1-1.079-1.142l.763-13.388a10.3 10.3 0 0 1 14.09-8.831 8.106 8.106 0 0 0 5.8.091l.351-.124a11.25 11.25 0 0 1 15.077 9.883l.692 12.43A1.081 1.081 0 0 1 51 70.471m-33.47-2.163h32.386v-.25l-.687-10.97a9.091 9.091 0 0 0-12.183-7.979l-.351.125a10.26 10.26 0 0 1-7.337-.115 8.13 8.13 0 0 0-11.129 6.972l-.1 1.391z" style="fill:#ffc600"/>
        <path data-name="패스 1406" d="M63.195 34.229a8.77 8.77 0 1 1 17.54 0v1.324a2.522 2.522 0 0 1 1.879 2.386 2.582 2.582 0 0 1-2.663 2.5h-.069a8.774 8.774 0 0 1-15.835 0h-.069a2.582 2.582 0 0 1-2.663-2.5 2.523 2.523 0 0 1 1.88-2.386z" style="fill-rule:evenodd;fill:#fff"/>
        <path data-name="패스 1407" d="M71.964 46.51a9.914 9.914 0 0 1-8.6-5.05 3.634 3.634 0 0 1-3.128-3.522 3.529 3.529 0 0 1 1.88-3.1v-.6a9.852 9.852 0 1 1 19.7 0v.6a3.529 3.529 0 0 1 1.88 3.1 3.637 3.637 0 0 1-3.133 3.531 9.908 9.908 0 0 1-8.6 5.041m0-19.97a7.7 7.7 0 0 0-7.688 7.689v2.137l-.781.226a1.438 1.438 0 0 0-1.1 1.346 1.508 1.508 0 0 0 1.582 1.416h.681l.364.615a7.692 7.692 0 0 0 13.883 0l.293-.616h.683a1.53 1.53 0 0 0 1.651-1.416 1.438 1.438 0 0 0-1.1-1.346l-.781-.226v-2.136a7.7 7.7 0 0 0-7.689-7.689" style="fill:#ffc600"/>
        <path data-name="패스 1408" d="M55.326 70.472h-.061a1.081 1.081 0 0 1-1.02-1.14l.764-13.388A10.3 10.3 0 0 1 69.1 47.11a8.1 8.1 0 0 0 5.8.09l.35-.125a11.251 11.251 0 0 1 15.077 9.886l.689 11.7a1.081 1.081 0 0 1-2.159.127l-.689-11.7a9.089 9.089 0 0 0-12.183-7.978l-.351.124a10.26 10.26 0 0 1-7.337-.115 8.131 8.131 0 0 0-11.13 6.974l-.1 1.39-.667 11.968a1.081 1.081 0 0 1-1.078 1.021" style="fill:#ffc600"/>
        <path data-name="패스 1409" d="M76.882 61.845a3.478 3.478 0 0 1-.289 1.413 3.763 3.763 0 0 1-.784 1.157 3.7 3.7 0 0 1-1.149.777 3.5 3.5 0 0 1-1.413.287H68.4v-2.425h4.85a1.193 1.193 0 0 0 .474-.093 1.224 1.224 0 0 0 .643-1.588 1.128 1.128 0 0 0-.262-.38 1.105 1.105 0 0 0-.381-.262 1.193 1.193 0 0 0-.474-.093h-3.3v-2.425h3.3a1.248 1.248 0 0 0 .474-.093 1.208 1.208 0 0 0 .381-.255 1.26 1.26 0 0 0 .262-.388 1.307 1.307 0 0 0 .092-.482 1.243 1.243 0 0 0-.092-.474 1.294 1.294 0 0 0-.643-.642 1.228 1.228 0 0 0-.474-.091H68.4v-2.427h4.85a3.534 3.534 0 0 1 1.413.287 3.775 3.775 0 0 1 1.933 1.937 3.461 3.461 0 0 1 .289 1.41 3.594 3.594 0 0 1-.246 1.3 3.633 3.633 0 0 1-.694 1.123 3.6 3.6 0 0 1 .694 1.134 3.509 3.509 0 0 1 .246 1.291" style="fill:#ffc600"/>
        <path data-name="패스 1410" d="M16.386 75.214a1.082 1.082 0 0 0 0 2.163zm52.684 1.847a1.084 1.084 0 0 0 0-1.531l-6.884-6.884a1.083 1.083 0 1 0-1.531 1.532l6.12 6.118-6.12 6.117a1.083 1.083 0 1 0 1.531 1.532zm-.77-1.847H16.386v2.163H68.3z" style="fill:#ffc600"/>
    </g>
</svg>
