<svg xmlns="http://www.w3.org/2000/svg" width="106" height="106" viewBox="0 0 106 106">
    <defs>
        <clipPath id="uzac0u0cra">
            <path data-name="사각형 1894" style="fill:none" d="M0 0h106v106H0z"/>
        </clipPath>
    </defs>
    <g data-name="그룹 51">
        <g data-name="그룹 50" style="clip-path:url(#uzac0u0cra)">
            <path data-name="패스 1380" d="M52.749.831A51.918 51.918 0 1 1 .831 52.749 51.918 51.918 0 0 1 52.749.831" transform="translate(.251 .251)" style="fill:#fff"/>
            <path data-name="패스 1381" d="M53 106a53 53 0 1 1 53-53 53.06 53.06 0 0 1-53 53M53 2.163A50.836 50.836 0 1 0 103.837 53 50.893 50.893 0 0 0 53 2.163" transform="translate(0 .001)" style="fill:#ffc600"/>
            <path data-name="패스 1382" d="M18.948 23.884v33.891a6.486 6.486 0 0 0 6.49 6.491h45.428V29.292H45.708l-4.414-4.209a4.283 4.283 0 0 0-2.986-1.2z" transform="translate(5.714 7.203)" style="fill:#ffc600"/>
            <path data-name="패스 1383" d="M71.117 65.6H25.689a7.581 7.581 0 0 1-7.571-7.572V24.135a1.082 1.082 0 0 1 1.082-1.082h19.359a5.352 5.352 0 0 1 3.735 1.5l4.1 3.906h24.723a1.081 1.081 0 0 1 1.083 1.084v34.972a1.081 1.081 0 0 1-1.083 1.085M20.281 25.216v32.81a5.413 5.413 0 0 0 5.408 5.408h44.347v-32.81H45.957a1.075 1.075 0 0 1-.746-.3L40.8 26.116a3.212 3.212 0 0 0-2.24-.9z" transform="translate(5.464 6.952)" style="fill:#ffc600"/>
            <path data-name="패스 1384" d="M33.835 29.925h-9.367a1.082 1.082 0 0 1 0-2.163h9.367a1.082 1.082 0 0 1 0 2.163" transform="translate(7.052 8.372)" style="fill:#fff"/>
            <path data-name="패스 1385" d="M55.539 32.195a21.632 21.632 0 1 1-21.633 21.633 21.633 21.633 0 0 1 21.633-21.633" transform="translate(10.225 9.709)" style="fill:#fff"/>
            <path data-name="패스 1386" d="M36.823 53.22a1.074 1.074 0 0 0 1.1 1.065 1.091 1.091 0 0 0 1.061-1.1zm3.612 7.126a1.071 1.071 0 0 0-1.318.767l-2.509 9.405a1.09 1.09 0 0 0 .756 1.324 1.074 1.074 0 0 0 1.32-.765l2.25-8.361 8.349 2.231a1.082 1.082 0 0 0 .562-2.09zm25.7 3.483a15.741 15.741 0 0 1-22.261.539l-1.493 1.566a17.921 17.921 0 0 0 25.332-.612zM43.334 42.1a15.74 15.74 0 0 1 22.261-.539L67.087 40a17.922 17.922 0 0 0-25.332.613zm22.261-.539a15.758 15.758 0 0 1 .541 22.266l1.579 1.493A17.926 17.926 0 0 0 67.087 40zM38.987 53.189A15.65 15.65 0 0 1 43.334 42.1l-1.579-1.493a17.907 17.907 0 0 0-4.932 12.613zm4.889 11.179a14.946 14.946 0 0 1-2.768-3.519l-1.882 1.084a17.878 17.878 0 0 0 3.158 4z" transform="translate(11.028 10.571)" style="fill:#ffc600"/>
            <path data-name="사각형 1891" transform="translate(64.487 46.182)" style="fill:#ffc600" d="M0 0h2.163v4.326H0z"/>
            <path data-name="사각형 1892" transform="translate(64.487 76.948)" style="fill:#ffc600" d="M0 0h2.163v4.326H0z"/>
            <path data-name="사각형 1893" transform="translate(78.548 62.407)" style="fill:#ffc600" d="M0 0h4.326v2.163H0z"/>
            <path data-name="패스 1387" d="M52.186 54.556a1.087 1.087 0 0 1-.739-.292l-6.727-6.293a1.082 1.082 0 1 1 1.479-1.58l5.845 5.469 7.929-10.571a1.082 1.082 0 0 1 1.732 1.3l-8.654 11.533a1.085 1.085 0 0 1-.771.43h-.1" transform="translate(13.383 12.321)" style="fill:#ffc600"/>
        </g>
    </g>
</svg>
