<svg data-name="그룹 57" xmlns="http://www.w3.org/2000/svg" width="106" height="105.999" viewBox="0 0 106 105.999">
    <defs>
        <clipPath id="l1qq8kpb0a">
            <path data-name="사각형 1897" style="fill:none" d="M0 0h106v105.999H0z"/>
        </clipPath>
    </defs>
    <g data-name="그룹 56" style="clip-path:url(#l1qq8kpb0a)">
        <path data-name="패스 1411" d="M53 1.082A51.918 51.918 0 1 1 1.082 53 51.917 51.917 0 0 1 53 1.082" style="fill:#fff"/>
        <path data-name="패스 1412" d="M53 106a53 53 0 1 1 53-53 53.06 53.06 0 0 1-53 53M53 2.163A50.836 50.836 0 1 0 103.837 53 50.894 50.894 0 0 0 53 2.163" style="fill:#ffc600"/>
        <path data-name="패스 1413" d="M34.593 50.718a18.453 18.453 0 1 1 36.905 0v4.629a18.453 18.453 0 1 1-36.905 0z" style="fill:#ffc600"/>
        <path data-name="패스 1414" d="M53.047 74.883a19.557 19.557 0 0 1-19.535-19.535v-4.629a19.534 19.534 0 1 1 39.068 0v4.629a19.556 19.556 0 0 1-19.533 19.535m0-41.535a17.391 17.391 0 0 0-17.371 17.371v4.629a17.37 17.37 0 1 0 34.74 0v-4.629a17.389 17.389 0 0 0-17.369-17.371" style="fill:#ffc600"/>
        <path data-name="패스 1415" d="M49.8 67.527h6.49a6.489 6.489 0 0 1 0 12.979H49.8a6.489 6.489 0 1 1 0-12.979" style="fill:#fff"/>
        <path data-name="패스 1416" d="M61.915 79.986h-8.868a1.082 1.082 0 1 1 0-2.163h8.868a14.032 14.032 0 0 0 14.017-14.017V49.312a22.886 22.886 0 1 0-45.773 0v14.494a1.082 1.082 0 1 1-2.163 0V49.312a25.05 25.05 0 1 1 50.1 0v14.494a16.2 16.2 0 0 1-16.18 16.18" style="fill:#ffc600"/>
        <path data-name="패스 1417" d="M29.078 66.683h-2.662a9.064 9.064 0 0 1 0-18.128h2.662a1.082 1.082 0 0 1 0 2.164h-2.662a6.9 6.9 0 0 0 0 13.8h2.662a1.082 1.082 0 1 1 0 2.163" style="fill:#ffc600"/>
        <path data-name="패스 1418" d="M79.675 66.683h-2.662a1.082 1.082 0 0 1 0-2.163h2.662a6.9 6.9 0 1 0 0-13.8h-2.662a1.082 1.082 0 0 1 0-2.164h2.662a9.064 9.064 0 1 1 0 18.128" style="fill:#ffc600"/>
        <path data-name="패스 1419" d="M48.092 75.271a3.665 3.665 0 0 1 3.656-3.656H58V78.9h-6.252a3.646 3.646 0 0 1-3.656-3.634" style="fill:#fff"/>
        <path data-name="패스 1420" d="M58 71.616h1.081A1.1 1.1 0 0 0 58 70.534zm0 8.371h1.082V78.9H58zM51.748 72.7H58v-2.166h-6.252zm5.17 6.209h2.163v-7.29h-2.163zM58 77.824h-6.252v2.163H58zm-6.252 0a2.561 2.561 0 0 1-2.574-2.553H47.01a4.732 4.732 0 0 0 4.738 4.716zm0-7.29a4.736 4.736 0 0 0-4.738 4.737h2.164a2.566 2.566 0 0 1 2.574-2.571z" style="fill:#ffc600"/>
        <path data-name="패스 1421" d="M52.914 62.8c-2.33 0-4.616-1.016-7.423-3.051A1.081 1.081 0 1 1 46.758 58c4.9 3.547 7.369 3.536 12.6-.017a1.081 1.081 0 0 1 1.217 1.787c-2.975 2.019-5.337 3.03-7.661 3.03" style="fill:#fff"/>
    </g>
</svg>
