<svg data-name="그룹 53" xmlns="http://www.w3.org/2000/svg" width="106" height="105.999" viewBox="0 0 106 105.999">
    <defs>
        <clipPath id="3a86if24ta">
            <path data-name="사각형 1895" style="fill:none" d="M0 0h106v105.999H0z"/>
        </clipPath>
    </defs>
    <g data-name="그룹 52" style="clip-path:url(#3a86if24ta)">
        <path data-name="패스 1388" d="M53 1.08A51.918 51.918 0 1 1 1.08 53 51.917 51.917 0 0 1 53 1.08" transform="translate(.002 .002)" style="fill:#fff"/>
        <path data-name="패스 1389" d="M53 106a53 53 0 1 1 53-53 53.061 53.061 0 0 1-53 53M53 2.164A50.836 50.836 0 1 0 103.837 53 50.894 50.894 0 0 0 53 2.164" style="fill:#ffc600"/>
        <path data-name="패스 1390" d="M24.8 31.021v33.892a6.489 6.489 0 0 0 6.49 6.49h45.427V36.429h-25.16l-4.4-4.21a4.327 4.327 0 0 0-2.99-1.2z" transform="translate(.053 .066)" style="fill:#ffc600"/>
        <path data-name="패스 1391" d="M76.72 72.486H31.292a7.581 7.581 0 0 1-7.572-7.571V31.023a1.082 1.082 0 0 1 1.08-1.082h19.365a5.4 5.4 0 0 1 3.737 1.5l4.092 3.91H76.72a1.081 1.081 0 0 1 1.08 1.08V71.4a1.081 1.081 0 0 1-1.081 1.081M25.884 32.1v32.81a5.414 5.414 0 0 0 5.408 5.407h44.347V37.513H51.56a1.081 1.081 0 0 1-.748-.3L46.408 33a3.24 3.24 0 0 0-2.243-.9z" transform="translate(.05 .063)" style="fill:#ffc600"/>
        <path data-name="패스 1392" d="M41.012 38.22h-9.374a1.082 1.082 0 0 1 0-2.164h9.374a1.082 1.082 0 0 1 0 2.164" transform="translate(.065 .076)" style="fill:#fff"/>
        <path data-name="패스 1393" d="M65.86 41.814a21.633 21.633 0 1 1-21.633 21.633A21.633 21.633 0 0 1 65.86 41.814" transform="translate(.094 .089)" style="fill:#fff"/>
        <path data-name="패스 1394" d="M65.858 80.736q-.708 0-1.419-.058A17.339 17.339 0 1 1 73.33 47.7a1.081 1.081 0 1 1-.914 1.96 15.257 15.257 0 0 0-21.655 15.114 15.119 15.119 0 0 0 13.854 13.748 15.282 15.282 0 0 0 16.019-11.31 15.1 15.1 0 0 0-.2-8.425 1.081 1.081 0 1 1 2.061-.652 17.243 17.243 0 0 1 .233 9.628 17.449 17.449 0 0 1-16.87 12.973" transform="translate(.103 .098)" style="fill:#ffc600"/>
        <path data-name="패스 1395" d="M65.831 51.011a1.081 1.081 0 0 1-1.081-1.081v-5.414a1.081 1.081 0 1 1 2.163 0v5.414a1.081 1.081 0 0 1-1.081 1.081" transform="translate(.137 .092)" style="fill:#ffc600"/>
        <path data-name="패스 1396" d="M65.831 83.413a1.081 1.081 0 0 1-1.081-1.081v-5.413a1.081 1.081 0 1 1 2.163 0v5.412a1.081 1.081 0 0 1-1.081 1.081" transform="translate(.137 .161)" style="fill:#ffc600"/>
        <path data-name="패스 1397" d="M84.745 64.5h-5.413a1.082 1.082 0 0 1 0-2.164h5.412a1.082 1.082 0 0 1 0 2.164" transform="translate(.166 .132)" style="fill:#ffc600"/>
        <path data-name="패스 1398" d="M52.343 64.5H46.93a1.082 1.082 0 0 1 0-2.164h5.412a1.082 1.082 0 0 1 0 2.164" transform="translate(.097 .132)" style="fill:#ffc600"/>
        <path data-name="패스 1399" d="M65.832 71.711a8.293 8.293 0 1 1 8.293-8.293 8.3 8.3 0 0 1-8.293 8.293m0-14.421a6.129 6.129 0 1 0 6.13 6.129 6.137 6.137 0 0 0-6.13-6.129" transform="translate(.122 .117)" style="fill:#ffc600"/>
    </g>
</svg>
