<svg xmlns="http://www.w3.org/2000/svg" width="106" height="106" viewBox="0 0 106 106">
    <defs>
        <clipPath id="wc8yn7ds4a">
            <path data-name="사각형 1889" style="fill:none" d="M0 0h106v106H0z"/>
        </clipPath>
    </defs>
    <g data-name="그룹 47">
        <g data-name="그룹 46" style="clip-path:url(#wc8yn7ds4a)">
            <path data-name="패스 1364" d="M52.749.831A51.918 51.918 0 1 1 .831 52.749 51.918 51.918 0 0 1 52.749.831" transform="translate(.251 .251)" style="fill:#ffc600"/>
            <path data-name="패스 1365" d="M53 106a53 53 0 1 1 53-53 53.06 53.06 0 0 1-53 53M53 2.163A50.836 50.836 0 1 0 103.836 53 50.893 50.893 0 0 0 53 2.163" transform="translate(0 .001)" style="fill:#ffc600"/>
            <path data-name="패스 1366" d="M14.379 75.9a1.033 1.033 0 0 1-.141-.009 1.082 1.082 0 0 1-.933-1.212l1.083-8.327a15.666 15.666 0 0 1 18.939-12.737L44.68 56.2a20.65 20.65 0 0 0 9.1.007L65.3 53.6a16.105 16.105 0 0 1 19.368 12.68l1.087 6.8a1.082 1.082 0 1 1-2.136.342l-1.082-6.767a13.939 13.939 0 0 0-16.76-10.942l-11.519 2.6A22.813 22.813 0 0 1 44.2 58.31l-11.355-2.586a13.506 13.506 0 0 0-16.319 10.94l-1.076 8.289a1.081 1.081 0 0 1-1.071.942" transform="translate(4.009 16.044)" style="fill:#fff"/>
            <path data-name="패스 1367" d="M28.109 36.49a18.706 18.706 0 0 1 37.412 0v2.91a5.394 5.394 0 0 1 4.007 5.11 5.519 5.519 0 0 1-5.679 5.344h-.129a18.712 18.712 0 0 1-33.812 0h-.13a5.519 5.519 0 0 1-5.678-5.346 5.4 5.4 0 0 1 4.009-5.11z" transform="translate(7.267 5.364)" style="fill-rule:evenodd;fill:#fff"/>
            <path data-name="패스 1368" d="m16.291 61.588-2.163 14.061 6.49 5.408 14.061 5.409 16.549 2.067L62.8 86.466l10.06-4.423 11.573-8.558L82.27 62.67 74.7 55.1h-8.655l-20.55 2.163-18.388-3.246L21.7 56.18z" transform="translate(4.26 16.29)" style="fill:#fff"/>
            <path data-name="패스 1369" d="M53 106a53 53 0 1 1 53-53 53.06 53.06 0 0 1-53 53M53 2.163A50.836 50.836 0 1 0 103.836 53 50.893 50.893 0 0 0 53 2.163" transform="translate(0 .001)" style="fill:#ffc600"/>
        </g>
    </g>
</svg>
