<svg xmlns="http://www.w3.org/2000/svg" width="16" height="16" viewBox="0 0 16 16">
    <g transform="translate(-39 -224)">
        <circle data-name="타원 31" cx="8" cy="8" r="8" transform="translate(39 224)" style="fill:#ffc600"/>
        <path d="M4.019 0a.571.571 0 0 0-.571.571v.343a2.858 2.858 0 0 0-2.286 2.8v.336A3.437 3.437 0 0 1 .3 6.328l-.132.148a.572.572 0 0 0 .427.952h6.852a.572.572 0 0 0 .427-.952l-.132-.148a3.433 3.433 0 0 1-.866-2.278v-.336A2.858 2.858 0 0 0 4.59.914V.571A.571.571 0 0 0 4.019 0zm.809 8.809A1.143 1.143 0 0 0 5.162 8H2.876a1.144 1.144 0 0 0 1.952.809z" transform="translate(42.981 227)" style="fill:#fff"/>
    </g>
</svg>
