<svg xmlns="http://www.w3.org/2000/svg" width="20" height="22.857" viewBox="0 0 20 22.857">
    <path d="M10.018 0A1.427 1.427 0 0 0 8.59 1.429v.857a7.146 7.146 0 0 0-5.714 7v.839a8.592 8.592 0 0 1-2.165 5.7l-.33.371a1.429 1.429 0 0 0 1.067 2.379h17.141a1.429 1.429 0 0 0 1.067-2.379l-.33-.371a8.583 8.583 0 0 1-2.165-5.7v-.839a7.146 7.146 0 0 0-5.714-7v-.857A1.427 1.427 0 0 0 10.018 0zm2.022 22.022A2.858 2.858 0 0 0 12.875 20H7.161a2.86 2.86 0 0 0 4.879 2.022z" transform="translate(-.019)" style="fill:#ffc600"/>
</svg>
