<svg xmlns="http://www.w3.org/2000/svg" width="37" height="37" viewBox="0 0 37 37">
    <defs>
        <filter id="w9j0n3bvka" x="0" y="0" width="37" height="37" filterUnits="userSpaceOnUse">
            <feOffset dy="2"/>
            <feGaussianBlur stdDeviation="1.5" result="blur"/>
            <feFlood flood-opacity=".2"/>
            <feComposite operator="in" in2="blur"/>
            <feComposite in="SourceGraphic"/>
        </filter>
    </defs>
    <g style="filter:url(#w9j0n3bvka)">
        <circle data-name="타원 33" cx="14" cy="14" r="14" transform="translate(4.5 2.5)" style="fill:#ff4600"/>
    </g>
    <path d="M6.356 0a.9.9 0 0 0-.905.905v.543a4.529 4.529 0 0 0-3.622 4.437v.532a5.445 5.445 0 0 1-1.372 3.61l-.209.235a.906.906 0 0 0 .676 1.508h10.864a.906.906 0 0 0 .676-1.508l-.209-.235a5.44 5.44 0 0 1-1.372-3.61v-.532a4.529 4.529 0 0 0-3.622-4.436V.905A.9.9 0 0 0 6.356 0zm1.282 13.957a1.811 1.811 0 0 0 .529-1.282H4.545a1.813 1.813 0 0 0 3.092 1.282z" transform="translate(12.48 9.5)" style="fill:#fff"/>
</svg>
