<svg xmlns="http://www.w3.org/2000/svg" width="28" height="28" viewBox="0 0 28 28">
    <g transform="translate(-270 -654)">
        <circle data-name="타원 34" cx="14" cy="14" r="14" transform="translate(270 654)" style="fill:#ffe8e4"/>
        <g data-name="그룹 4466">
            <g data-name="그룹 4460">
                <path data-name="패스 11443" d="M3 15.2V4.411A1.411 1.411 0 0 1 4.411 3h9.876A1.411 1.411 0 0 1 15.7 4.411v7.054a1.411 1.411 0 0 1-1.411 1.411H6.5a1.411 1.411 0 0 0-1.1.529l-1.646 2.056A.423.423 0 0 1 3 15.2z" transform="translate(275 658.279)" style="stroke:#fc4d43;fill:none;stroke-width:2px"/>
                <path data-name="패스 11475" d="M3 3.713V15.7l3.427-3.023h8.465L16 11.976V3.713L12.775 2.6l-9.272.6z" transform="translate(275 658.396)" style="fill:#fc4b43"/>
            </g>
            <path data-name="패스 11474" d="M7 10.822h7.054M7 8h4.233" transform="translate(273.822 656.806)" style="stroke:#ffe8e4;stroke-linecap:round;stroke-linejoin:round;fill:none;stroke-width:2px"/>
        </g>
    </g>
</svg>
