<svg xmlns="http://www.w3.org/2000/svg" width="44.556" height="44.562" viewBox="0 0 44.556 44.562">
    <defs>
        <linearGradient id="nbd013r08a" x1=".5" x2=".5" y2="1" gradientUnits="objectBoundingBox">
            <stop offset="0" stop-color="#ffdb47"/>
            <stop offset="1" stop-color="#ffb520"/>
        </linearGradient>
    </defs>
    <path data-name="패스 11509" d="m524.734 731.754-1.775 3.113-3.118 5.471a.8.8 0 0 1-1.307 0l-.945-1.634-2.158.494c-.591.135-1.107-.347-.852-.8l3-5.271 1.89-3.313z" transform="translate(-506.753 -708.419)" style="fill:#fe7766"/>
    <path data-name="패스 11510" d="m531.765 732.229-1.775 3.876a3.01 3.01 0 0 1-2.089-1.321 1.111 1.111 0 0 0-.921-.493 1.284 1.284 0 0 0-.218.022 2.948 2.948 0 0 1-.6.061 2.992 2.992 0 0 1-1.548-.429l1.89-4.126z" transform="translate(-512.984 -707.02)" style="fill:#ea796b"/>
    <path data-name="패스 11511" d="m539.266 731.754 1.775 3.113 3.118 5.471a.8.8 0 0 0 1.307 0l.945-1.634 2.158.494c.591.135 1.107-.347.852-.8l-3-5.271-1.89-3.313z" transform="translate(-521.27 -708.419)" style="fill:#fe7766"/>
    <path data-name="패스 11512" d="m539.266 732.229 1.775 3.876a3.01 3.01 0 0 0 2.089-1.321 1.111 1.111 0 0 1 .921-.493 1.285 1.285 0 0 1 .218.022 2.947 2.947 0 0 0 .6.061 2.991 2.991 0 0 0 1.548-.429l-1.89-4.126z" transform="translate(-522.07 -707.02)" style="fill:#ea796b"/>
    <path data-name="패스 11513" d="M529.714 695.551a2.609 2.609 0 0 0 2.726 1.168 2.694 2.694 0 0 1 3.118 3.224 2.782 2.782 0 0 0 1.129 2.82 2.792 2.792 0 0 1 0 4.56 2.781 2.781 0 0 0-1.129 2.82 2.694 2.694 0 0 1-3.118 3.224 2.61 2.61 0 0 0-2.726 1.168 2.6 2.6 0 0 1-4.409 0 2.61 2.61 0 0 0-2.726-1.168 2.694 2.694 0 0 1-3.118-3.224 2.78 2.78 0 0 0-1.129-2.82 2.792 2.792 0 0 1 0-4.56 2.781 2.781 0 0 0 1.129-2.82 2.694 2.694 0 0 1 3.118-3.224 2.609 2.609 0 0 0 2.726-1.168 2.6 2.6 0 0 1 4.409 0z" transform="translate(-509.521 -687.073)" style="fill:url(#nbd013r08a)"/>
    <path data-name="패스 11514" d="M547.837 717.8a1.18 1.18 0 0 1-.538 1 2.915 2.915 0 0 0-1.243 3.008 1.206 1.206 0 0 1-1.175 1.443 1.222 1.222 0 0 1-.246-.023 2.772 2.772 0 0 0-.575-.057 2.917 2.917 0 0 0-2.433 1.3 1.2 1.2 0 0 1-2.007 0 2.851 2.851 0 0 0-.34-.42 1.158 1.158 0 0 0 .486.1 1.182 1.182 0 0 0 1-.54 2.917 2.917 0 0 1 2.433-1.3 2.794 2.794 0 0 1 .575.057 1.423 1.423 0 0 0 .246.023 1.206 1.206 0 0 0 1.175-1.444 2.91 2.91 0 0 1 1.244-3.008 1.181 1.181 0 0 0 .537-1 1.161 1.161 0 0 0-.1-.489 2.906 2.906 0 0 0 .423.343 1.188 1.188 0 0 1 .538 1.007z" transform="translate(-521.281 -698.449)" style="fill:#f9bc4e"/>
    <path data-name="패스 11515" d="m536.336 709.546.508 1.252a.86.86 0 0 0 .735.534l1.348.1a.86.86 0 0 1 .492 1.516l-1.034.87a.861.861 0 0 0-.281.865l.325 1.311a.86.86 0 0 1-1.289.937l-1.147-.714a.861.861 0 0 0-.909 0l-1.147.714a.86.86 0 0 1-1.289-.937l.325-1.311a.861.861 0 0 0-.281-.865l-1.034-.87a.86.86 0 0 1 .492-1.516l1.348-.1a.86.86 0 0 0 .736-.534l.508-1.252a.86.86 0 0 1 1.594 0z" transform="translate(-517.551 -695.617)" style="fill:#fff8e1"/>
</svg>
