<svg xmlns="http://www.w3.org/2000/svg" xmlns:xlink="http://www.w3.org/1999/xlink" width="18.513" height="28.171" viewBox="0 0 18.513 28.171">
    <defs>
        <linearGradient id="tfpyl3jxma" x1=".5" y1="1.345" x2=".5" y2=".066" gradientUnits="objectBoundingBox">
            <stop offset="0" stop-color="#dc425e"/>
            <stop offset="1" stop-color="#e3838a"/>
        </linearGradient>
        <linearGradient id="l5740c72pb" x1=".5" y1="-.328" x2=".5" y2="-3.513" xlink:href="#tfpyl3jxma"/>
        <linearGradient id="hq9zmsb24c" x1=".5" y1=".538" x2=".5" y2="-.249" gradientUnits="objectBoundingBox">
            <stop offset="0" stop-color="#ffbf00"/>
            <stop offset="1" stop-color="#f5f221"/>
        </linearGradient>
    </defs>
    <path data-name="패스 11546" d="M449.535 398.143h.182l-.182-.322-.183.322c.063.003.123 0 .183 0z" transform="translate(-440.28 -386.572)" style="stroke:#5600d1;stroke-linecap:round;stroke-linejoin:round;stroke-width:3px;fill:#fff"/>
    <path data-name="패스 11549" d="M449.717 398.562h-.365" transform="translate(-440.28 -386.987)" style="stroke:#5600d1;stroke-linecap:round;stroke-linejoin:round;stroke-width:3px;fill:#fff"/>
    <g data-name="그룹 4801">
        <path data-name="패스 11552" d="m437.817 383.124-3.628-6.441-2.712-4.812-2.812 4.812 4.653 8.26a7.467 7.467 0 0 1 4.318-1.5z" transform="translate(-428.562 -371.871)" style="fill:url(#tfpyl3jxma)"/>
        <path data-name="패스 11553" d="m454.273 384.943 4.654-8.26-2.811-4.812-2.712 4.812-3.629 6.441.183.322a7.455 7.455 0 0 1 4.315 1.497z" transform="translate(-440.519 -371.871)" style="fill:url(#tfpyl3jxma)"/>
        <path data-name="패스 11554" d="m435.151 371.871 2.712 4.812h7.257l2.713-4.812z" transform="translate(-432.236 -371.871)" style="fill:url(#l5740c72pb)"/>
    </g>
    <g data-name="그룹 4804">
        <g data-name="그룹 4803">
            <g data-name="그룹 4802">
                <path data-name="패스 11555" d="M449.215 405.681a9.256 9.256 0 1 1-9.257-9.257 9.256 9.256 0 0 1 9.257 9.257z" transform="translate(-430.702 -386.765)" style="fill:url(#hq9zmsb24c)"/>
                <path data-name="패스 11557" d="M444.9 397.863a9.247 9.247 0 0 0-13.812 10.453h.027a14.32 14.32 0 0 0 13.785-10.453z" transform="translate(-430.702 -386.765)" style="opacity:.2;fill:#fff"/>
                <path data-name="패스 11558" d="M-4.563.795H-.08V-.4h-1.4v-6.26h-1.1a4.836 4.836 0 0 1-1.733.625v.917h1.35V-.4h-1.6z" transform="translate(11.804 21.177)" style="stroke:#fff;fill:#fff"/>
            </g>
        </g>
    </g>
</svg>
