<svg xmlns="http://www.w3.org/2000/svg" width="19.5" height="19.5" viewBox="0 0 19.5 19.5">
    <path data-name="패스 11437" d="M11 20a9 9 0 1 1 9-9 9 9 0 0 1-9 9z" style="stroke:#b5b5b5;stroke-linecap:round;stroke-linejoin:round;stroke-width:1.5px;fill:none" transform="translate(-1.25 -1.25)"/>
    <path data-name="패스 11438" d="M16.5 14.5a5.8 5.8 0 0 1-4.5 2 5.8 5.8 0 0 1-4.5-2" transform="translate(-2.25 -2.639)" style="stroke:#b5b5b5;stroke-linecap:round;stroke-linejoin:round;stroke-width:1.5px;fill:none"/>
    <path data-name="패스 11439" d="M15.5 9a.5.5 0 1 1 .5-.5.5.5 0 0 1-.5.5zm-7 0a.5.5 0 1 1 .5-.5.5.5 0 0 1-.5.5z" transform="translate(-2.25 -1.882)" style="fill:#b5b5b5;stroke:#b5b5b5;stroke-linecap:round;stroke-linejoin:round;stroke-width:1.5px"/>
</svg>
