<svg xmlns="http://www.w3.org/2000/svg" width="151.585" height="19.108" viewBox="0 0 151.585 19.108">
    <path data-name="패스 11394" d="M157.4 414.154a4.5 4.5 0 0 0 3.05-4.286v-3.835a4.464 4.464 0 0 0-4.406-4.51h-9.262a2.6 2.6 0 0 0-2.566 2.625v16.482h5.016v-6.253h2.5l3.436 6.253h5.432zm-1.439-4.659a.235.235 0 0 1-.232.236h-6.289a.228.228 0 0 1-.209-.154v-3.255a.228.228 0 0 1 .209-.154h6.289a.234.234 0 0 1 .232.236z" transform="translate(-144.219 -401.523)" style="fill:#8b8b8b"/>
    <path data-name="패스 11395" d="M189.3 406.219h11.389v-4.7h-13.815a2.577 2.577 0 0 0-2.564 2.585v13.937a2.577 2.577 0 0 0 2.564 2.585h13.813v-4.7H189.3a.23.23 0 0 1-.229-.232v-2.504h10.387v-4.227h-10.389v-2.513a.23.23 0 0 1 .231-.231z" transform="translate(-165.007 -401.523)" style="fill:#8b8b8b"/>
    <path data-name="패스 11396" d="M236.332 401.523h-9.344a2.61 2.61 0 0 0-2.588 2.625v16.482h5.059v-6.253h6.873a4.483 4.483 0 0 0 4.445-4.51v-3.835a4.483 4.483 0 0 0-4.445-4.509zm-.083 4.883v3.09a.236.236 0 0 1-.234.236h-6.344a.23.23 0 0 1-.212-.155v-3.253a.23.23 0 0 1 .212-.154h6.344a.236.236 0 0 1 .235.236z" transform="translate(-185.794 -401.523)" style="fill:#8b8b8b"/>
    <path data-name="패스 11397" d="M285.475 406.219h11.389v-4.7H283.05a2.578 2.578 0 0 0-2.564 2.585v13.937a2.578 2.578 0 0 0 2.564 2.585h13.814v-4.7h-11.389a.231.231 0 0 1-.229-.232v-2.504h10.387v-4.227h-10.388v-2.513a.231.231 0 0 1 .23-.231z" transform="translate(-203.244 -401.523)" style="fill:#8b8b8b"/>
    <path data-name="패스 11398" d="M332.7 401.523h-7.879a4.376 4.376 0 0 0-4.25 4.483v14.624H325v-6.547a.236.236 0 0 1 .234-.237h7.066a.236.236 0 0 1 .234.237v6.547h4.42v-14.625a4.376 4.376 0 0 0-4.254-4.482zm-.171 5.015v2.581a.236.236 0 0 1-.234.237h-7.068a.236.236 0 0 1-.234-.237v-2.581a.236.236 0 0 1 .234-.237h7.073a.236.236 0 0 1 .234.237z" transform="translate(-223.974 -401.523)" style="fill:#8b8b8b"/>
    <path data-name="패스 11399" d="M377.045 411.491a2.464 2.464 0 0 0-2.438-2.469h-8.821a.235.235 0 0 1-.234-.235v-2.074a.235.235 0 0 1 .234-.235h6.132a.235.235 0 0 1 .234.235v1.25h4.892V406a4.458 4.458 0 0 0-4.427-4.479h-7.522a4.458 4.458 0 0 0-4.428 4.479v5.493a2.463 2.463 0 0 0 2.31 2.46h8.93a.235.235 0 0 1 .234.235v2.074a.235.235 0 0 1-.234.234h-6.132a.235.235 0 0 1-.234-.234v-1.25h-4.874v1.138a4.458 4.458 0 0 0 4.427 4.479h7.522a4.458 4.458 0 0 0 4.427-4.479v-4.569z" transform="translate(-244.762 -401.523)" style="fill:#8b8b8b"/>
    <path data-name="패스 11400" d="M417.135 401.523H412.3l-3.358 5.962-3.357-5.962h-4.832l5.839 10.4v8.707h4.7v-8.708z" transform="translate(-265.55 -401.522)" style="fill:#8b8b8b"/>
    <path data-name="패스 11526" d="M2049.045 1150.263h11.39v4.713h-13.814a2.583 2.583 0 0 1-2.564-2.595v-16.513h4.76v14.161a.232.232 0 0 0 .228.234z" transform="translate(-1986.148 -1135.868)" style="fill:#8b8b8b"/>
</svg>
