<svg xmlns="http://www.w3.org/2000/svg" width="19.52" height="19.918" viewBox="0 0 19.52 19.918">
    <path data-name="패스 3587" d="M701.67 709.81a11.322 11.322 0 0 0-.179-2.015h-9.28v3.811h5.3a4.534 4.534 0 0 1-1.966 2.974v2.472h3.184a9.61 9.61 0 0 0 2.938-7.242z" transform="translate(-682.15 -699.521)" style="fill-rule:evenodd;fill:#3e82f1"/>
    <path data-name="패스 3588" d="M606.158 755.243a9.407 9.407 0 0 0 6.521-2.387l-3.184-2.472a5.944 5.944 0 0 1-8.85-3.122h-3.292v2.553a9.849 9.849 0 0 0 8.8 5.428z" transform="translate(-596.305 -735.325)" style="fill:#32a753;fill-rule:evenodd"/>
    <path data-name="패스 3589" d="M590.4 685.721a5.823 5.823 0 0 1 0-3.744v-2.553h-3.29a9.864 9.864 0 0 0 0 8.85l3.292-2.553z" transform="translate(-586.062 -673.89)" style="fill:#f9bb00;fill-rule:evenodd"/>
    <path data-name="패스 3590" d="M606.277 624.864a5.436 5.436 0 0 1 3.818 1.473l2.864-2.826a9.668 9.668 0 0 0-6.682-2.566 10 10 0 0 0-8.924 5.428l3.336 2.553a5.943 5.943 0 0 1 5.588-4.062z" transform="translate(-596.305 -620.945)" style="fill:#e74133;fill-rule:evenodd"/>
</svg>
