<svg xmlns="http://www.w3.org/2000/svg" width="45" height="45" viewBox="0 0 45 45">
    <g data-name="그룹 4795" transform="translate(-155 -116)">
        <circle data-name="타원 158" cx="22.5" cy="22.5" r="22.5" transform="translate(155 116)" style="fill:#cbcbcb"/>
        <path data-name="패스 11218" d="m-1.665-9.612-.484-7.25q-.136-2.119-.136-3.042a2.758 2.758 0 0 1 .658-1.96 2.262 2.262 0 0 1 1.733-.7 1.744 1.744 0 0 1 1.741.9 6.092 6.092 0 0 1 .439 2.6 19.8 19.8 0 0 1-.106 2.028l-.651 7.454a5.85 5.85 0 0 1-.454 2.043 1.189 1.189 0 0 1-1.15.711 1.145 1.145 0 0 1-1.135-.689 6.853 6.853 0 0 1-.455-2.095zM.015.348A2.382 2.382 0 0 1-1.6-.25a2.1 2.1 0 0 1-.689-1.673 2.175 2.175 0 0 1 .658-1.6 2.192 2.192 0 0 1 1.616-.655 2.243 2.243 0 0 1 1.627.658 2.15 2.15 0 0 1 .674 1.6A2.113 2.113 0 0 1 1.6-.257 2.318 2.318 0 0 1 .015.348z" transform="translate(177.286 149.569)" style="fill:#fff"/>
    </g>
</svg>
