<svg xmlns="http://www.w3.org/2000/svg" width="17.707" height="17.707" viewBox="0 0 17.707 17.707">
    <path data-name="패스 188" d="M.919 0a.82.82 0 0 1 .826.826l-.086 20.638a.839.839 0 0 1-.834.834.82.82 0 0 1-.825-.827L.085.834A.839.839 0 0 1 .919 0z" transform="rotate(-45 2.093 .366)" style="fill:#222;stroke:#000;stroke-width:.5px"/>
    <path data-name="패스 189" d="M.826 0a.839.839 0 0 1 .834.834l.085 20.638a.82.82 0 0 1-.826.826.839.839 0 0 1-.834-.834L0 .826A.82.82 0 0 1 .826 0z" transform="rotate(45 7.633 19.637)" style="fill:#222;stroke:#000;stroke-width:.5px"/>
</svg>
