<svg xmlns="http://www.w3.org/2000/svg" width="130" height="128" viewBox="0 0 130 128">
    <g data-name="그룹 4131">
        <g data-name="타원 51" transform="translate(4 1)" style="stroke-width:15px;stroke:#d5d5d5;fill:none">
            <ellipse cx="63" cy="63.5" rx="63" ry="63.5" style="stroke:none"/>
            <ellipse cx="63" cy="63.5" rx="55.5" ry="56" style="fill:none"/>
        </g>
        <path data-name="합치기 17" d="M.83 58.645a7.352 7.352 0 0 1 7.5-7.2 7.2 7.2 0 1 1 0 14.391 7.353 7.353 0 0 1-7.5-7.191zM3.076 42.1.124 9.377A7.642 7.642 0 0 1 0 7.991 8.166 8.166 0 0 1 8.331 0a8.166 8.166 0 0 1 8.33 7.991 7.734 7.734 0 0 1-.125 1.387L13.584 42.1a5.15 5.15 0 0 1-5.253 5.04 5.151 5.151 0 0 1-5.255-5.04z" transform="translate(58.671 31.749)" style="fill:#d5d5d5"/>
    </g>
    <g data-name="그룹 4130">
        <g data-name="타원 51" style="stroke:#ccc;stroke-width:15px;fill:none">
            <circle cx="63.5" cy="63.5" r="63.5" style="stroke:none"/>
            <circle cx="63.5" cy="63.5" r="56" style="fill:none"/>
        </g>
        <path data-name="합치기 17" d="M.83 58.645a7.352 7.352 0 0 1 7.5-7.2 7.2 7.2 0 1 1 0 14.391 7.353 7.353 0 0 1-7.5-7.191zM3.076 42.1.124 9.377A7.642 7.642 0 0 1 0 7.991 8.166 8.166 0 0 1 8.331 0a8.166 8.166 0 0 1 8.33 7.991 7.734 7.734 0 0 1-.125 1.387L13.584 42.1a5.15 5.15 0 0 1-5.253 5.04 5.151 5.151 0 0 1-5.255-5.04z" transform="translate(55 30.831)" style="fill:#ccc"/>
    </g>
</svg>
