<svg xmlns="http://www.w3.org/2000/svg" width="21.168" height="21.168" viewBox="0 0 21.168 21.168">
    <g data-name="그룹 4784">
        <g data-name="그룹 4783">
            <path data-name="패스 11537" d="M10.584 21.168A10.584 10.584 0 1 0 0 10.584a10.584 10.584 0 0 0 10.584 10.584z"/>
            <path data-name="패스 11541" d="M230.556 401.523h-4.82a1.343 1.343 0 0 0-1.335 1.348v8.463h2.61v-3.211h3.546a2.307 2.307 0 0 0 2.293-2.316v-1.969a2.307 2.307 0 0 0-2.294-2.315zm-.043 2.507v1.587a.121.121 0 0 1-.121.121h-3.273a.119.119 0 0 1-.11-.08v-1.67a.119.119 0 0 1 .11-.079h3.273a.121.121 0 0 1 .121.121z" transform="translate(-217.765 -395.489)" style="fill:#ffc600"/>
        </g>
    </g>
</svg>
