<svg xmlns="http://www.w3.org/2000/svg" width="14" height="14" viewBox="0 0 14 14">
    <path data-name="사각형 29" style="fill:none" d="M0 0h14v14H0z"/>
    <path data-name="패스 12" d="M7 10.003a3 3 0 0 1-2.615-4.474L3.13 4.202a7.766 7.766 0 0 0-2.8 2.8 7.716 7.716 0 0 0 8.8 3.541l-.8-.849a2.984 2.984 0 0 1-1.33.309z"/>
    <path data-name="패스 13" d="M13.674 7a7.709 7.709 0 0 0-8.593-3.595l.776.82a3 3 0 0 1 3.85 4.071l1.327 1.4a7.761 7.761 0 0 0 2.64-2.7z"/>
    <path data-name="패스 14" d="M7 8.905a1.9 1.9 0 0 0 .51-.071L5.197 6.388a1.9 1.9 0 0 0 1.8 2.517z"/>
    <path data-name="패스 15" d="M8.905 7a1.893 1.893 0 0 0-2.2-1.879l2.159 2.283A1.921 1.921 0 0 0 8.905 7z"/>
    <path data-name="사각형 30" d="m1.686 1.981.734-.694 9.758 10.326-.734.694z"/>
</svg>
