<svg xmlns="http://www.w3.org/2000/svg" width="130" height="128" viewBox="0 0 130 128">
    <g data-name="그룹 4131">
        <g data-name="타원 51" style="stroke-width:15px;stroke:#d5d5d5;fill:none" transform="translate(4 1)">
            <ellipse cx="63" cy="63.5" rx="63" ry="63.5" style="stroke:none"/>
            <ellipse cx="63" cy="63.5" rx="55.5" ry="56" style="fill:none"/>
        </g>
    </g>
    <g data-name="그룹 4130">
        <path data-name="패스 11296" d="M309.18 132.689a18.674 18.674 0 1 1-18.674 18.674 18.7 18.7 0 0 1 18.674-18.674" transform="translate(-242.657 -103.226)" style="fill:#d5d5d5"/>
        <path data-name="패스 11297" d="M270.436 510.462c-.382 6.092-1.682 10.034-3.974 12.049-7.744 6.812-15.672 10.266-23.563 10.266s-15.819-3.454-23.563-10.266c-2.292-2.016-3.591-5.957-3.974-12.049-.271-4.323 1.016-8.559 3.359-11.053a6.864 6.864 0 0 1 5.039-2.348h38.278a6.864 6.864 0 0 1 5.039 2.348c2.343 2.494 3.63 6.73 3.359 11.053" transform="translate(-176.478 -429.051)" style="fill:#d5d5d5"/>
        <g data-name="타원 51" style="stroke:#0e7ae5;stroke-width:15px;fill:none">
            <ellipse cx="63" cy="63.5" rx="63" ry="63.5" style="stroke:none"/>
            <ellipse cx="63" cy="63.5" rx="55.5" ry="56" style="fill:none"/>
        </g>
        <path data-name="패스 11294" d="M309.18 132.689a18.674 18.674 0 1 1-18.674 18.674 18.7 18.7 0 0 1 18.674-18.674" transform="translate(-246.18 -105.898)" style="fill:#0e7ae5"/>
        <path data-name="패스 11295" d="M270.436 510.462c-.382 6.092-1.682 10.034-3.974 12.049-7.744 6.812-15.672 10.266-23.563 10.266s-15.819-3.454-23.563-10.266c-2.292-2.016-3.591-5.957-3.974-12.049-.271-4.323 1.016-8.559 3.359-11.053a6.864 6.864 0 0 1 5.039-2.348h38.278a6.864 6.864 0 0 1 5.039 2.348c2.343 2.494 3.63 6.73 3.359 11.053" transform="translate(-179.899 -431.728)" style="fill:#0e7ae5"/>
    </g>
</svg>
