<svg xmlns="http://www.w3.org/2000/svg" width="20" height="20" viewBox="0 0 20 20">
    <g data-name="그룹 1234">
        <path data-name="패스 147" d="M8.393 19.405c-1.331 0-1.328-.842-2.659-.844-1.069 0-1.729-.348-1.688-1.415.085-2.206 2.141-4.781 4.347-4.835q1.728-.042 3.458 0a4.833 4.833 0 0 1 4.507 4.314 2.075 2.075 0 0 1-1.961 2.06c-1.341 0-2.655.943-4 .943"/>
        <path data-name="패스 148" d="M13.07 8.661a2.945 2.945 0 1 1-2.917-2.975 2.944 2.944 0 0 1 2.917 2.975"/>
    </g>
    <g data-name="타원 31" style="stroke:#000;stroke-width:2px;fill:none">
        <circle cx="10" cy="10" r="10" style="stroke:none"/>
        <circle cx="10" cy="10" r="9" style="fill:none"/>
    </g>
</svg>
