<svg xmlns="http://www.w3.org/2000/svg" width="25" height="25" viewBox="0 0 25 25">
    <path data-name="사각형 4944" style="fill:transparent" d="M0 0h25v25H0z"/>
    <path data-name="합치기 3" d="M18.571 22.856a1.428 1.428 0 0 1-1.428-1.428V5.714a1.428 1.428 0 0 1 1.428-1.428h3.571a1.427 1.427 0 0 1 1.428 1.428v15.714a1.427 1.427 0 0 1-1.428 1.428zm-.215-17.142v15.714a.216.216 0 0 0 .215.215h3.571a.216.216 0 0 0 .215-.215V5.714a.216.216 0 0 0-.215-.215h-3.571a.216.216 0 0 0-.215.215zm-7.641 17.142a1.429 1.429 0 0 1-1.43-1.428V9.286a1.429 1.429 0 0 1 1.43-1.428h3.571a1.427 1.427 0 0 1 1.427 1.428v12.142a1.427 1.427 0 0 1-1.428 1.428zm-.216-13.57v12.142a.217.217 0 0 0 .216.215h3.571a.215.215 0 0 0 .214-.215V9.286a.213.213 0 0 0-.214-.213h-3.571a.215.215 0 0 0-.216.213zm-7.643 13.57a1.428 1.428 0 0 1-1.428-1.428v-8.572a1.429 1.429 0 0 1 1.428-1.428h3.572a1.428 1.428 0 0 1 1.429 1.428v8.572a1.427 1.427 0 0 1-1.429 1.428zm-.213-10v8.572a.216.216 0 0 0 .213.215h3.572a.215.215 0 0 0 .214-.215v-8.572a.213.213 0 0 0-.214-.213H2.856a.214.214 0 0 0-.213.213z"/>
</svg>
