<svg xmlns="http://www.w3.org/2000/svg" width="25" height="25" viewBox="0 0 25 25">
    <path data-name="사각형 4945" style="fill:transparent" d="M0 0h25v25H0z"/>
    <g data-name="그룹 81">
        <path data-name="빼기 1" d="M19.732 23.528H5.269A1.43 1.43 0 0 1 3.841 22.1V5.164a1.43 1.43 0 0 1 1.428-1.429h2.546V4.95H5.269a.213.213 0 0 0-.213.213V22.1a.215.215 0 0 0 .213.215h14.463a.215.215 0 0 0 .215-.215V5.164a.214.214 0 0 0-.215-.213h-2.543V3.735h2.543a1.43 1.43 0 0 1 1.428 1.429V22.1a1.43 1.43 0 0 1-1.428 1.428z"/>
        <path data-name="합치기 1 - 윤곽선" d="M16.469 6.043H8.698A1.18 1.18 0 0 1 7.52 4.865V3.737a1.18 1.18 0 0 1 1.178-1.178h1.378v-.356a1.18 1.18 0 0 1 1.178-1.178h2.662a1.18 1.18 0 0 1 1.179 1.178v.356h1.374a1.18 1.18 0 0 1 1.182 1.178v1.128a1.18 1.18 0 0 1-1.182 1.178zM8.698 3.487a.25.25 0 0 0-.25.25v1.128a.25.25 0 0 0 .25.25h7.771a.25.25 0 0 0 .25-.25V3.737a.25.25 0 0 0-.25-.25h-1.838a.464.464 0 0 1-.462-.464v-.82a.25.25 0 0 0-.25-.25h-2.665a.25.25 0 0 0-.25.25v.82a.464.464 0 0 1-.464.464z"/>
        <path data-name="합치기 4" d="M8.422 17.354a.607.607 0 1 1 0-1.214h8.159a.607.607 0 1 1 0 1.214zm0-3.348a.607.607 0 1 1 0-1.214h8.159a.607.607 0 1 1 0 1.214zm0-3.347a.608.608 0 1 1 0-1.214h8.159a.608.608 0 1 1 0 1.215z"/>
    </g>
</svg>
