<svg xmlns="http://www.w3.org/2000/svg" width="108" height="19" viewBox="0 0 108 19">
    <defs>
        <clipPath id="2amruboala">
            <path data-name="사각형 12" style="fill:none" d="M0 0h108v19H0z"/>
        </clipPath>
    </defs>
    <path data-name="패스 37" d="M89.447.133v4.815h3.059v14.1h5V.133z" transform="translate(-46.915 -.066)" style="fill:#ffc600"/>
    <g data-name="그룹 9">
        <g data-name="그룹 8" style="clip-path:url(#2amruboala)">
            <path data-name="패스 38" d="M84.875.064h-7.8a4.33 4.33 0 0 0-4.2 4.439v14.484h4.373v-6.483a.233.233 0 0 1 .232-.234h6.995a.233.233 0 0 1 .232.234v6.484h4.368V4.503a4.331 4.331 0 0 0-4.2-4.439m-.171 4.967v2.555a.234.234 0 0 1-.232.234h-6.991a.234.234 0 0 1-.232-.234V5.031a.235.235 0 0 1 .232-.234h6.994a.234.234 0 0 1 .232.234"/>
            <path data-name="패스 39" d="M65.868.063h-9.243a2.585 2.585 0 0 0-2.561 2.6v16.324h5v-6.193h6.8a4.438 4.438 0 0 0 4.4-4.466V4.531a4.438 4.438 0 0 0-4.4-4.466m-.083 4.836v3.06a.233.233 0 0 1-.231.234h-6.271a.227.227 0 0 1-.209-.154V4.818a.225.225 0 0 1 .209-.153h6.28a.232.232 0 0 1 .231.234"/>
            <path data-name="패스 40" d="M108 .077h-4.78l-3.325 5.9-3.315-5.9h-4.784l5.776 10.3v8.624h4.65v-8.625z"/>
            <path data-name="패스 41" d="M16.532 0H2.583A2.594 2.594 0 0 0 0 2.6v16.338h5.25V5.116a.237.237 0 0 1 .235-.238h2.536a.237.237 0 0 1 .235.238v13.822h4.556V5.116a.237.237 0 0 1 .235-.238h2.537a.237.237 0 0 1 .235.238v13.822h5.15V4.465A4.456 4.456 0 0 0 16.532 0"/>
            <path data-name="패스 42" d="M39.487 0h-4.789L31.37 5.909 28.042 0h-4.79l5.788 10.308v8.631h4.659v-8.632z"/>
        </g>
    </g>
</svg>
