<svg xmlns="http://www.w3.org/2000/svg" width="176.826" height="31.11" viewBox="0 0 176.826 31.11">
    <defs>
        <clipPath id="g1ehu5lmma">
            <path data-name="사각형 2932" style="fill:none" d="M0 0h176.826v31.11H0z"/>
        </clipPath>
    </defs>
    <path data-name="패스 3716" d="M89.447.133v7.885h4.78v23.1h7.819V.133z" transform="translate(-19.555 -.029)" style="fill:#ffc600"/>
    <g data-name="그룹 3455">
        <g data-name="그룹 3454" style="clip-path:url(#g1ehu5lmma)">
            <path data-name="패스 3717" d="M172.345.133h-12.761A7.09 7.09 0 0 0 152.7 7.4v23.717h7.16V20.5a.381.381 0 0 1 .38-.384h11.446a.382.382 0 0 1 .381.384v10.619h7.161V7.4a7.091 7.091 0 0 0-6.883-7.267m-.277 8.132v4.184a.383.383 0 0 1-.381.384H160.24a.384.384 0 0 1-.381-.384V8.265a.384.384 0 0 1 .381-.384h11.446a.384.384 0 0 1 .381.384" transform="translate(-33.384 -.029)" style="fill:#070303"/>
            <path data-name="패스 3718" d="M132.611.132h-15.133a4.232 4.232 0 0 0-4.193 4.256v26.729h8.194V20.978h11.132a7.266 7.266 0 0 0 7.2-7.313v-6.22a7.265 7.265 0 0 0-7.2-7.313m-.135 7.918v5.01a.382.382 0 0 1-.379.384h-10.282a.372.372 0 0 1-.342-.252V7.917a.371.371 0 0 1 .342-.252H132.1a.382.382 0 0 1 .379.384" transform="translate(-24.767 -.029)" style="fill:#070303"/>
            <path data-name="패스 3719" d="M218.877.16h-7.826l-5.444 9.668L200.178.16h-7.833l9.455 16.864v14.12h7.613V17.023z" transform="translate(-42.051 -.035)" style="fill:#070303"/>
            <path data-name="패스 3720" d="M27.068 0H4.229A4.247 4.247 0 0 0 0 4.256v26.753h8.6V8.377a.388.388 0 0 1 .385-.389h4.152a.388.388 0 0 1 .385.389v22.632h7.459V8.377a.388.388 0 0 1 .384-.389h4.153a.388.388 0 0 1 .385.389v22.632h8.432V7.311A7.3 7.3 0 0 0 27.068 0" style="fill:#070303"/>
            <path data-name="패스 3721" d="M75.3 0h-7.839l-5.449 9.676L56.565 0h-7.842L58.2 16.878v14.131h7.628V16.876z" transform="translate(-10.652)" style="fill:#070303"/>
        </g>
    </g>
</svg>
