<svg xmlns="http://www.w3.org/2000/svg" width="133.725" height="31.664" viewBox="0 0 133.725 31.664">
    <path data-name="사각형 2880" d="M63.498 0h7.916v31.663h-7.916z"/>
    <path data-name="사각형 2881" d="M93.928 0h7.916v31.663h-7.916z"/>
    <path data-name="패스 3581" d="M120.797 0h-9.9a4.31 4.31 0 0 0-4.31 4.3v23.064a4.31 4.31 0 0 0 4.31 4.3h9.9a12.923 12.923 0 0 0 12.928-12.889v-5.882A12.924 12.924 0 0 0 120.797 0zm5.046 12.8v6.073a5.078 5.078 0 0 1-5.082 5.062h-5.9a.391.391 0 0 1-.393-.389V8.127a.392.392 0 0 1 .393-.389h5.9a5.078 5.078 0 0 1 5.082 5.055z"/>
    <path data-name="패스 3582" d="M39.648 31.664V8.272a.386.386 0 0 1 .388-.383h10.526a.386.386 0 0 1 .388.383v23.392h7.919V7.351A7.371 7.371 0 0 0 51.495 0H36.022a4.293 4.293 0 0 0-4.293 4.283v27.381z"/>
    <path data-name="패스 3583" d="M7.919 0v23.393a.386.386 0 0 0 .389.383h10.526a.386.386 0 0 0 .389-.383V.001h7.919v24.313a7.371 7.371 0 0 1-7.373 7.351H4.295a4.293 4.293 0 0 1-4.293-4.283V.001z"/>
    <path data-name="패스 3584" d="M2107.626 1335.407v8.058h4.891v23.605h8v-31.663z" transform="translate(-2031.382 -1335.407)" style="fill:#fff"/>
</svg>
