<svg xmlns="http://www.w3.org/2000/svg" width="131.23" height="31.073" viewBox="0 0 131.23 31.073">
    <path data-name="사각형 2880" d="M62.314 0h7.768v31.072h-7.768z"/>
    <path data-name="사각형 2881" d="M92.175 0h7.768v31.072h-7.768z"/>
    <path data-name="패스 3581" d="M118.542 0h-9.718a4.229 4.229 0 0 0-4.229 4.22v22.634a4.229 4.229 0 0 0 4.229 4.219h9.718a12.682 12.682 0 0 0 12.686-12.648v-5.776A12.683 12.683 0 0 0 118.542 0zm4.951 12.557v5.959a4.983 4.983 0 0 1-4.987 4.968h-5.792a.384.384 0 0 1-.386-.382V7.97a.384.384 0 0 1 .386-.382h5.792a4.983 4.983 0 0 1 4.989 4.969z"/>
    <path data-name="패스 3582" d="M38.903 31.073V8.118a.378.378 0 0 1 .381-.376h10.33a.378.378 0 0 1 .381.376v22.955h7.772V7.213A7.234 7.234 0 0 0 50.53-.001H35.346a4.212 4.212 0 0 0-4.213 4.2v26.87z"/>
    <path data-name="패스 3583" d="M7.771 0v22.955a.379.379 0 0 0 .381.376h10.329a.378.378 0 0 0 .381-.376V0h7.771v23.86a7.234 7.234 0 0 1-7.236 7.214H4.212a4.213 4.213 0 0 1-4.213-4.2V.004z"/>
    <path data-name="패스 3584" d="M2107.626 1335.407v7.908h4.8v23.165h7.851v-31.073z" transform="translate(-2032.805 -1335.407)" style="fill:#d89700"/>
</svg>
