<svg data-name="logo_uni1 par_b" xmlns="http://www.w3.org/2000/svg" width="120" height="19" viewBox="0 0 120 19">
    <defs>
        <clipPath id="qt5ll3gxla">
            <path data-name="사각형 4302" style="fill:none" d="M0 0h120v19H0z"/>
        </clipPath>
    </defs>
    <path data-name="사각형 4301" d="M39.187 0h4.892v19h-4.892z"/>
    <g data-name="그룹 3929">
        <g data-name="그룹 3928" style="clip-path:url(#qt5ll3gxla)">
            <path data-name="패스 11256" d="M24.47 19V4.964a.235.235 0 0 1 .24-.23h6.5a.235.235 0 0 1 .24.23V19h4.887V4.411A4.488 4.488 0 0 0 31.783 0h-9.55a2.613 2.613 0 0 0-2.65 2.57V19z"/>
            <path data-name="패스 11257" d="M4.887 0v14.036a.235.235 0 0 0 .24.23h6.5a.235.235 0 0 0 .24-.23V0h4.883v14.589A4.488 4.488 0 0 1 12.2 19H2.65A2.613 2.613 0 0 1 0 16.43V0z"/>
            <path data-name="패스 11258" d="M95.56 0v4.836h3.019V19h4.938V0z" transform="translate(-48.504)" style="fill:#cb873a"/>
            <path data-name="패스 11259" d="M96.088 0H88.03a4.407 4.407 0 0 0-4.346 4.457V19h4.521v-6.51a.238.238 0 0 1 .24-.236h7.228a.238.238 0 0 1 .24.236V19h4.521V4.457A4.408 4.408 0 0 0 96.088 0m-.175 4.986v2.567a.238.238 0 0 1-.24.236h-7.228a.238.238 0 0 1-.24-.236V4.986a.238.238 0 0 1 .24-.236h7.228a.238.238 0 0 1 .24.236"/>
            <path data-name="패스 11260" d="M76.439 0h-9.552a2.632 2.632 0 0 0-2.648 2.61V19h5.175v-6.217h7.029A4.521 4.521 0 0 0 80.987 8.3V4.485A4.521 4.521 0 0 0 76.439 0m-.085 4.855v3.072a.238.238 0 0 1-.239.235h-6.488a.234.234 0 0 1-.217-.154V4.774a.234.234 0 0 1 .217-.154h6.488a.237.237 0 0 1 .239.235"/>
            <path data-name="패스 11261" d="M120 0h-4.941l-3.434 5.929L108.192 0h-4.942l5.972 10.341V19h4.807v-8.66z"/>
        </g>
    </g>
</svg>
