<svg xmlns="http://www.w3.org/2000/svg" width="68.978" height="20" viewBox="0 0 68.978 20">
    <defs>
        <clipPath id="mjfqr41z7a">
            <path data-name="사각형 4767" style="fill:none" d="M0 0h68.978v20H0z"/>
        </clipPath>
    </defs>
    <path data-name="패스 11365" d="M0 0v5.086h3.083v14.9h5.044V0z" style="fill:#ffc600"/>
    <g data-name="그룹 4233">
        <g data-name="그룹 4232" style="clip-path:url(#mjfqr41z7a)">
            <path data-name="패스 11366" d="M44.554 0h-8.232a4.574 4.574 0 0 0-4.439 4.688v15.3h4.618v-6.85a.246.246 0 0 1 .245-.247h7.382a.247.247 0 0 1 .245.247v6.849h4.619V4.688A4.574 4.574 0 0 0 44.554 0m-.179 5.245v2.7a.247.247 0 0 1-.245.247h-7.384a.247.247 0 0 1-.245-.247v-2.7A.248.248 0 0 1 36.746 5h7.382a.247.247 0 0 1 .245.247"/>
            <path data-name="패스 11367" d="M24.476 0H14.72a2.729 2.729 0 0 0-2.7 2.745v17.242h5.286v-6.54h7.17a4.687 4.687 0 0 0 4.643-4.717V4.717A4.686 4.686 0 0 0 24.476 0m-.087 5.108V8.34a.247.247 0 0 1-.244.247h-6.628a.24.24 0 0 1-.221-.162v-3.4a.239.239 0 0 1 .221-.162h6.632a.246.246 0 0 1 .244.247"/>
            <path data-name="패스 11368" d="M68.978.014H63.93L60.418 6.25l-3.5-6.236h-5.053l6.1 10.878V20h4.911v-9.113z"/>
        </g>
    </g>
</svg>
