<svg xmlns="http://www.w3.org/2000/svg" width="214.425" height="35.048" viewBox="0 0 214.425 35.048">
    <g data-name="그룹 4875">
        <path data-name="패스 11394" d="M60.115 17.621a5.012 5.012 0 0 0 3.4-4.779V8.566a4.978 4.978 0 0 0-4.913-5.028H48.275a2.9 2.9 0 0 0-2.861 2.927v18.377h5.593v-6.971h2.788l3.831 6.971h6.045zm-1.6-5.194a.262.262 0 0 1-.258.264h-7.012a.254.254 0 0 1-.234-.172V8.89a.254.254 0 0 1 .234-.171h7.012a.261.261 0 0 1 .258.264z"/>
        <path data-name="패스 11395" d="M72.498 8.774h12.7V3.538h-15.4a2.874 2.874 0 0 0-2.859 2.882v15.54a2.874 2.874 0 0 0 2.859 2.882h15.4v-5.236h-12.7a.257.257 0 0 1-.255-.259v-2.8h11.583v-4.713H72.243v-2.8a.257.257 0 0 1 .255-.26z"/>
        <path data-name="패스 11396" d="M101.758 3.538H91.344a2.91 2.91 0 0 0-2.886 2.927v18.377h5.641v-6.971h7.659a5 5 0 0 0 4.957-5.028V8.567a5 5 0 0 0-4.957-5.029zm-.092 5.444v3.445a.263.263 0 0 1-.261.264h-7.073a.256.256 0 0 1-.237-.173V8.891a.256.256 0 0 1 .237-.172h7.073a.263.263 0 0 1 .265.263z"/>
        <path data-name="패스 11397" d="M137.098 8.774h12.7V3.538h-15.4a2.874 2.874 0 0 0-2.859 2.882v15.54a2.874 2.874 0 0 0 2.859 2.882h15.4v-5.236h-12.7a.257.257 0 0 1-.255-.259v-2.8h11.581v-4.713h-11.581v-2.8a.257.257 0 0 1 .255-.26z"/>
        <path data-name="패스 11398" d="M166.645 3.538h-8.785a4.879 4.879 0 0 0-4.738 5v16.306h4.929v-7.3a.263.263 0 0 1 .261-.264h7.88a.263.263 0 0 1 .261.264v7.3h4.929V8.536a4.879 4.879 0 0 0-4.737-4.998zm-.191 5.591v2.877a.263.263 0 0 1-.261.264h-7.88a.263.263 0 0 1-.261-.264V9.129a.263.263 0 0 1 .261-.264h7.88a.263.263 0 0 1 .26.264z"/>
        <path data-name="패스 11399" d="M192.903 14.652a2.747 2.747 0 0 0-2.718-2.753h-9.835a.261.261 0 0 1-.261-.262V9.325a.262.262 0 0 1 .261-.262h6.837a.262.262 0 0 1 .261.262v1.39h5.455V8.529a4.971 4.971 0 0 0-4.936-4.994h-8.391a4.971 4.971 0 0 0-4.936 4.994v6.124a2.746 2.746 0 0 0 2.575 2.743h9.961a.262.262 0 0 1 .261.262v2.313a.262.262 0 0 1-.261.261h-6.837a.262.262 0 0 1-.261-.261v-1.393h-5.434v1.269a4.971 4.971 0 0 0 4.936 4.994h8.387a4.971 4.971 0 0 0 4.936-4.994v-5.095z"/>
        <path data-name="패스 11400" d="M214.426 3.538h-5.387l-3.744 6.648-3.743-6.648h-5.387l6.51 11.6v9.709h5.241v-9.71z"/>
        <path data-name="패스 11526" d="M115.542 19.587h12.7v5.255h-15.4a2.879 2.879 0 0 1-2.859-2.893V3.538h5.306v15.788a.259.259 0 0 0 .253.261z"/>
    </g>
    <g data-name="그룹 4876">
        <g data-name="그룹 4782">
            <g data-name="그룹 4663">
                <path data-name="합치기 9" d="m6.5 33.417-1.1-5.845A8 8 0 0 1 0 20.001v-12a8 8 0 0 1 8-8h21.092a8 8 0 0 1 8 8v12a8 8 0 0 1-8 8h-11.32l-8.039 6.592a1.976 1.976 0 0 1-1.261.455A2 2 0 0 1 6.5 33.417z"/>
            </g>
        </g>
        <g data-name="그룹 4783">
            <path data-name="패스 11537" d="M11.189 20.378A9.189 9.189 0 1 0 2 11.189a9.189 9.189 0 0 0 9.189 9.189z" transform="translate(7.5 2.587)" style="fill:#ffc600"/>
            <path data-name="패스 11541" d="M20.916 8.704h-4.91a1.368 1.368 0 0 0-1.36 1.373v8.621h2.659v-3.27h3.612a2.35 2.35 0 0 0 2.336-2.359v-2.006a2.35 2.35 0 0 0-2.337-2.359zm-.044 2.554v1.616a.124.124 0 0 1-.123.124h-3.333a.121.121 0 0 1-.112-.081v-1.7a.121.121 0 0 1 .112-.081h3.33a.123.123 0 0 1 .127.122z"/>
        </g>
    </g>
</svg>
