<svg xmlns="http://www.w3.org/2000/svg" width="155" height="26" viewBox="0 0 155 26">
    <g data-name="그룹 1">
        <path data-name="패스 1" d="M1100.075 372.016a6.359 6.359 0 0 1-.745 3.035 5.527 5.527 0 0 1-2.356 2.262 7.2 7.2 0 0 1 1.744.8 4.948 4.948 0 0 1 1.342 1.265 5.751 5.751 0 0 1 .85 1.771 8.119 8.119 0 0 1 .3 2.291 6.632 6.632 0 0 1-.522 2.738 5.351 5.351 0 0 1-1.416 1.92 5.949 5.949 0 0 1-2.058 1.131 7.985 7.985 0 0 1-2.445.372h-14.522v-23.42h13.389a8.992 8.992 0 0 1 2.445.327 5.9 5.9 0 0 1 2.057 1.027 4.885 4.885 0 0 1 1.417 1.815 6.248 6.248 0 0 1 .52 2.666zm-7.157 3.244a3.587 3.587 0 0 0 1.938-1.116 2.861 2.861 0 0 0 .656-1.89 2.329 2.329 0 0 0-.82-1.934 3.038 3.038 0 0 0-1.953-.655h-7.813v7.735zm3.459 7.261a3.162 3.162 0 0 0-1.133-2.5 5.309 5.309 0 0 0-2.952-1.19l-7.365 2.143v5.178h7.664a3.934 3.934 0 0 0 2.818-.922 3.566 3.566 0 0 0 .968-2.709z" transform="translate(-1080.245 -365.126)" style="fill:#fff"/>
        <path data-name="패스 2" d="M1211.175 398.451V415.8h-4.712v-17.349z" transform="translate(-1182.667 -391.322)" style="fill:#fff"/>
        <path data-name="패스 3" d="M1247.27 375.182a13.233 13.233 0 0 1 .895-4.91 11.581 11.581 0 0 1 2.52-3.913 11.366 11.366 0 0 1 3.921-2.574 13.485 13.485 0 0 1 5.069-.923 12.547 12.547 0 0 1 10.735 5.743l-3.012 2.351a8.464 8.464 0 0 0-3.161-3.288 8.647 8.647 0 0 0-4.5-1.205 7.042 7.042 0 0 0-3.131.7 7.762 7.762 0 0 0-2.46 1.875 8.456 8.456 0 0 0-1.6 2.767 9.992 9.992 0 0 0-.567 3.378 10.829 10.829 0 0 0 .522 3.422 8.594 8.594 0 0 0 1.476 2.752 6.758 6.758 0 0 0 5.367 2.515 8.344 8.344 0 0 0 2.788-.446 6.712 6.712 0 0 0 2.207-1.265 6.017 6.017 0 0 0 1.491-1.979 6.675 6.675 0 0 0 .611-2.619h-7.216v-3.63h11.928v2.262a12.572 12.572 0 0 1-.82 4.642 10.058 10.058 0 0 1-2.326 3.556 10.556 10.556 0 0 1-3.623 2.291 12.978 12.978 0 0 1-4.712.818 13.631 13.631 0 0 1-4.89-.863 11.295 11.295 0 0 1-6.561-6.353 13.077 13.077 0 0 1-.951-5.104z" transform="translate(-1215.781 -362.429)" style="fill:#fff"/>
        <path data-name="패스 4" d="M1431.9 399a9 9 0 0 0-2.49-1.235 8.283 8.283 0 0 0-2.49-.432q-2.982 0-2.982 1.726a1.578 1.578 0 0 0 .507 1.176 4.252 4.252 0 0 0 1.938.818 15.09 15.09 0 0 1 5.815 2.381 4.565 4.565 0 0 1 1.849 3.749 5.386 5.386 0 0 1-.552 2.5 4.89 4.89 0 0 1-1.536 1.771 6.919 6.919 0 0 1-2.37 1.042 12.909 12.909 0 0 1-3.086.342 13.13 13.13 0 0 1-4.22-.64 14.159 14.159 0 0 1-3.563-1.8l1.7-3.3a9.329 9.329 0 0 0 2.535 1.518 7.978 7.978 0 0 0 3.011.565 5.475 5.475 0 0 0 2.654-.446 1.616 1.616 0 0 0 .715-1.488 1.707 1.707 0 0 0-.82-1.458 7.853 7.853 0 0 0-2.371-.982 27.374 27.374 0 0 1-3.19-1.042 8.354 8.354 0 0 1-2.132-1.205 4.158 4.158 0 0 1-1.208-1.547 5.086 5.086 0 0 1-.388-2.068 4.574 4.574 0 0 1 .507-2.158 4.775 4.775 0 0 1 1.446-1.651 7.054 7.054 0 0 1 2.252-1.056 10.707 10.707 0 0 1 2.922-.372 14.038 14.038 0 0 1 2.251.164 10.99 10.99 0 0 1 1.849.461 9.853 9.853 0 0 1 1.566.7 14.075 14.075 0 0 1 1.372.878z" transform="translate(-1354.91 -387.469)" style="fill:#fff"/>
        <path data-name="패스 5" d="M1509.993 372.255h4.354v3.63h-4.354v8.215a1.938 1.938 0 0 0 .462 1.384 1.858 1.858 0 0 0 1.416.491h2.773v3.63h-4.744a5.42 5.42 0 0 1-1.8-.3 4.3 4.3 0 0 1-1.476-.863 4 4 0 0 1-.984-1.384 4.6 4.6 0 0 1-.358-1.86v-9.314h-3.519v-3.63h3.519v-6.071h4.711z" transform="translate(-1422.294 -365.126)" style="fill:#fff"/>
        <path data-name="패스 6" d="M1578 403.317a9.594 9.594 0 0 1 .805-3.988 9.024 9.024 0 0 1 2.192-3.035 9.711 9.711 0 0 1 3.235-1.919 11.814 11.814 0 0 1 7.843 0 9.718 9.718 0 0 1 3.235 1.919 9.2 9.2 0 0 1 2.207 3.035 9.445 9.445 0 0 1 .82 3.988 9.242 9.242 0 0 1-.82 3.958 9.119 9.119 0 0 1-2.207 2.991 9.857 9.857 0 0 1-3.235 1.9 11.814 11.814 0 0 1-7.843 0 9.85 9.85 0 0 1-3.235-1.9 8.938 8.938 0 0 1-2.192-2.991 9.387 9.387 0 0 1-.805-3.958zm10.169 5.922a5.5 5.5 0 0 0 2.177-.432 5.038 5.038 0 0 0 1.745-1.22 5.771 5.771 0 0 0 1.148-1.875 6.627 6.627 0 0 0 .418-2.4 6.96 6.96 0 0 0-.418-2.455 5.551 5.551 0 0 0-1.148-1.89 5.147 5.147 0 0 0-1.745-1.205 5.5 5.5 0 0 0-2.177-.432 5.31 5.31 0 0 0-2.192.446 5.247 5.247 0 0 0-1.729 1.235 5.73 5.73 0 0 0-1.148 1.89 6.737 6.737 0 0 0-.418 2.41 6.614 6.614 0 0 0 .418 2.4 5.75 5.75 0 0 0 1.148 1.875 5.059 5.059 0 0 0 1.729 1.22 5.472 5.472 0 0 0 2.191.433z" transform="translate(-1484.157 -387.469)" style="fill:#fff"/>
        <path data-name="패스 7" d="M1704.125 397.336a5.672 5.672 0 0 0-2.281.446 5.335 5.335 0 0 0-1.774 1.235 5.639 5.639 0 0 0-1.163 1.875 6.622 6.622 0 0 0-.417 2.4 6.142 6.142 0 0 0 .432 2.321 5.92 5.92 0 0 0 1.193 1.875 5.58 5.58 0 0 0 1.789 1.265 5.372 5.372 0 0 0 2.222.461 6 6 0 0 0 3.027-.774 5.9 5.9 0 0 0 2.192-2.2l2.863 2.5a10.251 10.251 0 0 1-3.429 2.991 11.593 11.593 0 0 1-8.931.417 9.755 9.755 0 0 1-3.161-1.964 9.1 9.1 0 0 1-2.132-3.02 9.465 9.465 0 0 1-.775-3.869 9.636 9.636 0 0 1 .76-3.869 9.158 9.158 0 0 1 5.234-5.014 10.879 10.879 0 0 1 3.936-.7 9.809 9.809 0 0 1 8.529 4.107l-2.863 2.44a5.2 5.2 0 0 0-2.192-2.172 6.48 6.48 0 0 0-3.059-.751z" transform="translate(-1578.108 -387.469)" style="fill:#fff"/>
        <path data-name="패스 8" d="m1819.44 389.6-7.068-7.35v7.35h-4.711v-23.42h4.711v12.5l6.77-6.428h5.7l-8.588 8.094 8.886 9.255z" transform="translate(-1670.521 -365.126)" style="fill:#fff"/>
    </g>
    <path data-name="패스 9" d="m1874.922 369.661-5.583-5.572h5.583z" transform="translate(-1720.571 -363.425)" style="fill:#0659ff"/>
    <path data-name="패스 10" d="m1211.175 373.416-4.712-4.7h4.712z" transform="translate(-1182.667 -367.18)" style="fill:#0659ff"/>
    <path data-name="사각형 5" style="fill:transparent" d="M0 0h155v26H0z"/>
</svg>
