<svg xmlns="http://www.w3.org/2000/svg" width="18.17" height="16.664" viewBox="0 0 18.17 16.664">
    <g data-name="그룹 4663">
        <path data-name="합치기 9" d="m2.691 15.848-.481-2.551A4 4 0 0 1 .003 9.721V4.002a4 4 0 0 1 4-4H14.17a4 4 0 0 1 4 4v5.719a4 4 0 0 1-4 4H7.612l-3.311 2.711a.979.979 0 0 1-.631.23.994.994 0 0 1-.979-.814z"/>
        <g data-name="그룹 4662">
            <path data-name="패스 11503" d="M257.42 266.446q.406.9.83 1.784t.863 1.772a2.891 2.891 0 0 0 .186-.462q.1-.308.195-.658t.178-.67q.085-.32.135-.486a2.223 2.223 0 0 1 .559-.924 1.631 1.631 0 0 1 1.185-.427q1.541 0 1.541 1.967h-.423a1.07 1.07 0 0 0-.093-.444 1.322 1.322 0 0 0-.229-.356 1.068 1.068 0 0 0-.313-.237.745.745 0 0 0-.33-.089 1.249 1.249 0 0 0-.948.521 4.183 4.183 0 0 0-.66 1.138 6.307 6.307 0 0 0-.237.628q-.1.32-.186.64a5.182 5.182 0 0 0-.152.759l.339.877q.136.284.237.474t.178.361a2.052 2.052 0 0 1 .119.344 1.785 1.785 0 0 1 .042.421 1.386 1.386 0 0 1-.042.344.942.942 0 0 1-.135.3.675.675 0 0 1-.254.219.863.863 0 0 1-.4.083.731.731 0 0 1-.4-.125 1.3 1.3 0 0 1-.347-.332 1.735 1.735 0 0 1-.245-.492 1.933 1.933 0 0 1-.093-.6q0-.261.026-.516t.051-.462q.025-.207.051-.35a1.362 1.362 0 0 0 .025-.189l-.085-.367a2.068 2.068 0 0 0-.1-.207q-.051-.089-.136-.213t-.212-.3l-.33-.462q-.457-.6-1.033-1.428t-1.185-1.831z" transform="translate(-250.092 -263.247)" style="fill:#fff;stroke:#fff"/>
        </g>
    </g>
</svg>
