<svg xmlns="http://www.w3.org/2000/svg" width="360" height="60" viewBox="0 0 360 60">
    <g data-name="그룹 1">
        <path data-name="패스 1" d="M1126.3 379.644a14.6 14.6 0 0 1-1.731 7 12.8 12.8 0 0 1-5.472 5.219 16.766 16.766 0 0 1 4.051 1.854 11.464 11.464 0 0 1 3.117 2.918 13.238 13.238 0 0 1 1.974 4.086 18.618 18.618 0 0 1 .693 5.288 15.22 15.22 0 0 1-1.212 6.318 12.355 12.355 0 0 1-3.29 4.43 13.842 13.842 0 0 1-4.779 2.609 18.655 18.655 0 0 1-5.679.858h-33.729v-54.04h31.1a21.01 21.01 0 0 1 5.679.755 13.74 13.74 0 0 1 4.779 2.369 11.283 11.283 0 0 1 3.29 4.189 14.335 14.335 0 0 1 1.209 6.147zm-16.622 7.485a8.341 8.341 0 0 0 4.5-2.575 6.577 6.577 0 0 0 1.524-4.361 5.359 5.359 0 0 0-1.9-4.464 7.085 7.085 0 0 0-4.536-1.51h-18.146v17.855zm8.034 16.756a7.277 7.277 0 0 0-2.632-5.768 12.375 12.375 0 0 0-6.857-2.747l-17.107 4.944v11.949h17.8q4.293 0 6.545-2.129t2.253-6.249z" transform="translate(-1080.245 -363.742)" style="fill:#fff"/>
        <path data-name="패스 2" d="M1217.406 398.451v40.036h-10.943v-40.036z" transform="translate(-1151.195 -381.999)" style="fill:#fff"/>
        <path data-name="패스 3" d="M1247.27 391.293a30.364 30.364 0 0 1 2.078-11.331 26.711 26.711 0 0 1 5.853-9.031 26.415 26.415 0 0 1 9.107-5.94 31.5 31.5 0 0 1 11.774-2.129q15.513 0 24.934 13.254l-7 5.425a19.588 19.588 0 0 0-7.341-7.588 20.184 20.184 0 0 0-10.458-2.781 16.442 16.442 0 0 0-7.273 1.614 18.012 18.012 0 0 0-5.714 4.326 19.486 19.486 0 0 0-3.705 6.386 22.929 22.929 0 0 0-1.316 7.795 24.841 24.841 0 0 0 1.212 7.9 19.79 19.79 0 0 0 3.428 6.352 15.772 15.772 0 0 0 5.4 4.258 15.97 15.97 0 0 0 7.065 1.545 19.491 19.491 0 0 0 6.476-1.03 15.612 15.612 0 0 0 5.125-2.918 13.9 13.9 0 0 0 3.463-4.567 15.326 15.326 0 0 0 1.42-6.044h-16.761v-8.378h27.7v5.219a28.846 28.846 0 0 1-1.9 10.713 23.2 23.2 0 0 1-5.4 8.207 24.539 24.539 0 0 1-8.415 5.288 30.319 30.319 0 0 1-10.943 1.889 31.84 31.84 0 0 1-11.358-1.992 26.78 26.78 0 0 1-9.143-5.7 26.448 26.448 0 0 1-6.095-8.962 30.007 30.007 0 0 1-2.213-11.78z" transform="translate(-1174.134 -361.862)" style="fill:#fff"/>
        <path data-name="패스 4" d="M1449.337 405.929a20.95 20.95 0 0 0-5.783-2.85 19.347 19.347 0 0 0-5.783-1q-6.927 0-6.926 3.983a3.63 3.63 0 0 0 1.177 2.713 9.9 9.9 0 0 0 4.5 1.889q9.21 2.129 13.506 5.494a10.511 10.511 0 0 1 4.294 8.652 12.366 12.366 0 0 1-1.282 5.768 11.308 11.308 0 0 1-3.567 4.086 16.122 16.122 0 0 1-5.506 2.4 30.167 30.167 0 0 1-7.168.79 30.679 30.679 0 0 1-9.8-1.477 32.977 32.977 0 0 1-8.276-4.155l3.948-7.623a21.7 21.7 0 0 0 5.888 3.5 18.635 18.635 0 0 0 6.995 1.3q4.5 0 6.165-1.03a3.722 3.722 0 0 0 1.662-3.434 3.934 3.934 0 0 0-1.9-3.365 18.3 18.3 0 0 0-5.506-2.266 63.9 63.9 0 0 1-7.41-2.4 19.44 19.44 0 0 1-4.952-2.781 9.6 9.6 0 0 1-2.8-3.571 11.67 11.67 0 0 1-.9-4.773 10.5 10.5 0 0 1 1.177-4.979 11.043 11.043 0 0 1 3.359-3.811 16.429 16.429 0 0 1 5.229-2.438 25.023 25.023 0 0 1 6.787-.859 32.8 32.8 0 0 1 5.229.378 25.649 25.649 0 0 1 4.294 1.064 22.948 22.948 0 0 1 3.637 1.614 32.758 32.758 0 0 1 3.185 2.026z" transform="translate(-1270.512 -379.314)" style="fill:#fff"/>
        <path data-name="패스 5" d="M1520.878 380.193h10.112v8.378h-10.112v18.954a4.456 4.456 0 0 0 1.074 3.193 4.333 4.333 0 0 0 3.29 1.133h6.441v8.378h-11.013a12.664 12.664 0 0 1-4.19-.687 9.991 9.991 0 0 1-3.428-1.992 9.22 9.22 0 0 1-2.286-3.193 10.559 10.559 0 0 1-.831-4.292v-21.494h-8.173v-8.378h8.173v-14.009h10.943z" transform="translate(-1317.19 -363.742)" style="fill:#fff"/>
        <path data-name="패스 6" d="M1578 415.887a22.019 22.019 0 0 1 1.87-9.2 20.827 20.827 0 0 1 5.091-7 22.586 22.586 0 0 1 7.514-4.429 27.605 27.605 0 0 1 18.215 0 22.6 22.6 0 0 1 7.514 4.429 21.245 21.245 0 0 1 5.125 7 21.68 21.68 0 0 1 1.9 9.2 20.855 20.855 0 0 1-7.03 16.035 22.926 22.926 0 0 1-7.514 4.4 27.605 27.605 0 0 1-18.215 0 22.91 22.91 0 0 1-7.514-4.4 20.632 20.632 0 0 1-5.091-6.9 21.545 21.545 0 0 1-1.865-9.135zm23.618 13.666a12.855 12.855 0 0 0 5.056-1 11.7 11.7 0 0 0 4.052-2.816 13.3 13.3 0 0 0 2.666-4.326 15.2 15.2 0 0 0 .97-5.528 15.968 15.968 0 0 0-.97-5.666 12.791 12.791 0 0 0-2.666-4.36 11.955 11.955 0 0 0-4.052-2.781 12.855 12.855 0 0 0-5.056-1 12.4 12.4 0 0 0-5.091 1.03 12.188 12.188 0 0 0-4.017 2.85 13.208 13.208 0 0 0-2.666 4.361 15.456 15.456 0 0 0-.97 5.563 15.176 15.176 0 0 0 .97 5.528 13.257 13.257 0 0 0 2.666 4.326 11.754 11.754 0 0 0 4.017 2.816 12.779 12.779 0 0 0 5.09 1.002z" transform="translate(-1360.044 -379.314)" style="fill:#fff"/>
        <path data-name="패스 7" d="M1717.811 402.083a13.249 13.249 0 0 0-5.3 1.03 12.39 12.39 0 0 0-4.121 2.85 13 13 0 0 0-2.7 4.326 15.19 15.19 0 0 0-.969 5.528 14.09 14.09 0 0 0 1 5.356 13.649 13.649 0 0 0 2.771 4.326 12.957 12.957 0 0 0 4.155 2.918 12.544 12.544 0 0 0 5.16 1.065 14.013 14.013 0 0 0 7.03-1.786 13.672 13.672 0 0 0 5.091-5.082l6.649 5.769a23.766 23.766 0 0 1-7.965 6.9 27.085 27.085 0 0 1-20.743.961 22.673 22.673 0 0 1-7.342-4.532 21 21 0 0 1-4.952-6.97 21.719 21.719 0 0 1-1.8-8.927 22.11 22.11 0 0 1 1.766-8.928 21.209 21.209 0 0 1 12.155-11.571 25.411 25.411 0 0 1 9.142-1.614q13.02 0 19.809 9.477l-6.647 5.634a12.042 12.042 0 0 0-5.091-5.013 15.129 15.129 0 0 0-7.098-1.717z" transform="translate(-1425.126 -379.314)" style="fill:#fff"/>
        <path data-name="패스 8" d="m1835.019 420.229-16.419-16.962v16.962h-10.943v-54.045h10.943v28.843l15.722-14.833h13.229l-19.947 18.679 20.639 21.357z" transform="translate(-1489.143 -363.742)" style="fill:#fff"/>
    </g>
    <path data-name="패스 9" d="m1882.307 376.948-12.968-12.858h12.968z" transform="translate(-1523.813 -362.556)" style="fill:#0659ff"/>
    <path data-name="패스 10" d="m1217.406 379.565-10.943-10.85h10.943z" transform="translate(-1151.195 -365.173)" style="fill:#0659ff"/>
    <path data-name="사각형 5" style="fill:transparent" d="M0 0h360v60H0z"/>
</svg>
