<svg xmlns="http://www.w3.org/2000/svg" width="18" height="18" viewBox="0 0 18 18">
    <defs>
        <linearGradient id="l352jdu7db" x1="-.215" y1=".152" x2="1.215" y2=".848" gradientUnits="objectBoundingBox">
            <stop offset="0" stop-color="#a46df9"/>
            <stop offset="1" stop-color="#783dfa"/>
        </linearGradient>
        <linearGradient id="iizrqdrxzc" x1=".167" y1=".127" x2=".833" y2=".873" gradientUnits="objectBoundingBox">
            <stop offset="0" stop-color="#fff"/>
            <stop offset=".002" stop-color="#fff" stop-opacity=".996"/>
            <stop offset=".149" stop-color="#fff" stop-opacity=".847"/>
            <stop offset=".3" stop-color="#fff" stop-opacity=".722"/>
            <stop offset=".458" stop-color="#fff" stop-opacity=".624"/>
            <stop offset=".621" stop-color="#fff" stop-opacity=".553"/>
            <stop offset=".796" stop-color="#fff" stop-opacity=".514"/>
            <stop offset="1" stop-color="#fff" stop-opacity=".502"/>
        </linearGradient>
        <filter id="t3pdpjsxsa">
            <feOffset dy="3"/>
            <feGaussianBlur stdDeviation="3" result="blur"/>
            <feFlood flood-color="#989898" flood-opacity=".161" result="color"/>
            <feComposite operator="out" in="SourceGraphic" in2="blur"/>
            <feComposite operator="in" in="color"/>
            <feComposite operator="in" in2="SourceGraphic"/>
        </filter>
    </defs>
    <g data-name="그룹 4681" transform="translate(-561.179 -561.695)">
        <g data-type="innerShadowGroup">
            <path data-name="패스 11519" d="M589.69 567.534h-6.417l1.763-2.238a2.188 2.188 0 0 0-.643-3.268l-.238-.149a1.235 1.235 0 0 0-1.592.249l-6.007 7.623 1.62 1.013v5.664a2.221 2.221 0 0 0 2.338 2.082h7.915a2.3 2.3 0 0 0 2.271-1.589l1.721-6.289a2.589 2.589 0 0 0-2.731-3.098z" transform="translate(-13.325)" style="fill:#ebebeb"/>
            <g style="filter:url(#t3pdpjsxsa)">
                <path data-name="패스 11519" d="M589.69 567.534h-6.417l1.763-2.238a2.188 2.188 0 0 0-.643-3.268l-.238-.149a1.235 1.235 0 0 0-1.592.249l-6.007 7.623 1.62 1.013v5.664a2.221 2.221 0 0 0 2.338 2.082h7.915a2.3 2.3 0 0 0 2.271-1.589l1.721-6.289a2.589 2.589 0 0 0-2.731-3.098z" transform="translate(-13.32)" style="fill:#fff"/>
            </g>
        </g>
        <rect data-name="사각형 4994" width="6.262" height="14.412" rx="3.131" transform="translate(561.179 564.887)" style="fill:url(#l352jdu7db)"/>
        <circle data-name="타원 65" cx="1.448" cy="1.448" r="1.448" transform="translate(562.862 567.727)" style="fill:url(#iizrqdrxzc)"/>
    </g>
</svg>
