<svg xmlns="http://www.w3.org/2000/svg" width="43.177" height="43.182" viewBox="0 0 43.177 43.182">
    <defs>
        <linearGradient id="q8nupat3ma" x1=".5" x2=".5" y2="1" gradientUnits="objectBoundingBox">
            <stop offset="0" stop-color="#ffdb47"/>
            <stop offset="1" stop-color="#ffb520"/>
        </linearGradient>
    </defs>
    <g data-name="그룹 4680">
        <path data-name="패스 11509" d="m523.086 731.443-1.489 2.611-2.615 4.589a.674.674 0 0 1-1.1 0l-.792-1.371-1.81.414c-.5.114-.929-.292-.714-.668l2.519-4.421 1.586-2.779z" transform="translate(-502.458 -710.293)" style="fill:#fe7766"/>
        <path data-name="패스 11510" d="m530.612 731.84-1.489 3.252a2.524 2.524 0 0 1-1.752-1.108.932.932 0 0 0-.773-.413 1.077 1.077 0 0 0-.182.019 2.469 2.469 0 0 1-.5.051 2.51 2.51 0 0 1-1.3-.359l1.586-3.461z" transform="translate(-510.093 -708.488)" style="fill:#ea796b"/>
        <path data-name="패스 11511" d="m539.266 731.443 1.489 2.611 2.615 4.589a.674.674 0 0 0 1.1 0l.792-1.371 1.81.414c.5.114.929-.292.715-.668l-2.519-4.421-1.586-2.779z" transform="translate(-521.269 -710.293)" style="fill:#fe7766"/>
        <path data-name="패스 11512" d="m539.266 731.84 1.489 3.252a2.525 2.525 0 0 0 1.752-1.108.932.932 0 0 1 .772-.413 1.079 1.079 0 0 1 .183.019 2.468 2.468 0 0 0 .5.051 2.51 2.51 0 0 0 1.3-.359l-1.586-3.461z" transform="translate(-521.161 -708.488)" style="fill:#ea796b"/>
        <path data-name="패스 11513" d="M526.557 695.207a1.989 1.989 0 0 0 2.041.839 1.975 1.975 0 0 1 2.334 2.316 1.96 1.96 0 0 0 .845 2.025 1.958 1.958 0 0 1 0 3.275 1.96 1.96 0 0 0-.845 2.025A1.975 1.975 0 0 1 528.6 708a1.99 1.99 0 0 0-2.041.839 1.991 1.991 0 0 1-3.3 0 1.99 1.99 0 0 0-2.041-.839 1.974 1.974 0 0 1-2.334-2.316 1.96 1.96 0 0 0-.845-2.025 1.959 1.959 0 0 1 0-3.275 1.96 1.96 0 0 0 .845-2.025 1.975 1.975 0 0 1 2.334-2.316 1.989 1.989 0 0 0 2.041-.839 1.991 1.991 0 0 1 3.298.003z" transform="translate(-505.594 -683.696)" style="fill:url(#q8nupat3ma)"/>
        <path data-name="패스 11514" d="M546.458 717.579a.99.99 0 0 1-.451.841 2.445 2.445 0 0 0-1.043 2.523 1.012 1.012 0 0 1-.986 1.211 1.025 1.025 0 0 1-.206-.019 2.33 2.33 0 0 0-.482-.048 2.446 2.446 0 0 0-2.041 1.091 1.008 1.008 0 0 1-1.683 0 2.393 2.393 0 0 0-.285-.352.97.97 0 0 0 .408.086.992.992 0 0 0 .842-.453 2.446 2.446 0 0 1 2.041-1.091 2.343 2.343 0 0 1 .482.048 1.19 1.19 0 0 0 .206.019 1.012 1.012 0 0 0 .985-1.211 2.441 2.441 0 0 1 1.043-2.523.99.99 0 0 0 .451-.842.973.973 0 0 0-.086-.41 2.44 2.44 0 0 0 .355.288 1 1 0 0 1 .45.842z" transform="translate(-521.281 -698.449)" style="fill:#f9bc4e"/>
        <path data-name="패스 11515" d="m535.532 709.46.426 1.05a.721.721 0 0 0 .617.448l1.131.081a.721.721 0 0 1 .413 1.271l-.867.73a.722.722 0 0 0-.236.725l.273 1.1a.721.721 0 0 1-1.082.786l-.962-.6a.722.722 0 0 0-.763 0l-.962.6a.721.721 0 0 1-1.082-.786l.272-1.1a.722.722 0 0 0-.235-.725l-.867-.73a.721.721 0 0 1 .413-1.271l1.13-.081a.721.721 0 0 0 .617-.448l.426-1.05a.721.721 0 0 1 1.338 0z" transform="translate(-515.552 -693.972)" style="fill:#fff8e1"/>
    </g>
</svg>
