<svg xmlns="http://www.w3.org/2000/svg" width="55" height="55" viewBox="0 0 55 55">
    <g transform="translate(-1084 -736)">
        <rect data-name="사각형 2895" width="55" height="55" rx="10" transform="translate(1084 736)" style="fill:#ff2c2e"/>
        <path data-name="패스 3613" d="M265.908 220.872h-11.427a.465.465 0 0 0-.465.465v18.4a.459.459 0 0 0 .459.459h4.772a.459.459 0 0 0 .459-.459v-13.29h4.9a3.7 3.7 0 0 1 3.7 3.7v9.6a.459.459 0 0 0 .459.459h4.8a.459.459 0 0 0 .459-.459V228.98a8.108 8.108 0 0 0-8.116-8.108z" transform="translate(847.484 532.964)" style="fill:#fff"/>
    </g>
</svg>
