<svg xmlns="http://www.w3.org/2000/svg" width="55" height="55" viewBox="0 0 55 55">
    <g data-name="패스 3592" style="fill:#fff">
        <path d="M45.833 54.5H9.167C4.387 54.5.5 50.612.5 45.833V9.167C.5 4.387 4.388.5 9.167.5h36.666c4.78 0 8.667 3.888 8.667 8.667v36.666c0 4.78-3.888 8.667-8.667 8.667z" style="stroke:none"/>
        <path d="M9.167 1C4.664 1 1 4.664 1 9.167v36.666C1 50.336 4.664 54 9.167 54h36.666C50.336 54 54 50.336 54 45.833V9.167C54 4.664 50.336 1 45.833 1H9.167m0-1h36.666A9.167 9.167 0 0 1 55 9.167v36.666A9.167 9.167 0 0 1 45.833 55H9.167A9.167 9.167 0 0 1 0 45.833V9.167A9.167 9.167 0 0 1 9.167 0z" style="fill:#e9e9e9;stroke:none"/>
    </g>
    <g data-name="그룹 3425">
        <g data-name="그룹 3423">
            <path data-name="패스 3593" d="M254.5 103.756h-14.565a1.2 1.2 0 0 0-1.189 1.189v1.355l8.208 2.542 8.734-2.542v-1.352a1.2 1.2 0 0 0-1.188-1.192z" transform="translate(-216.33 -88.116)" style="fill:#0364b8"/>
            <path data-name="패스 3594" d="M245.037 159a9.6 9.6 0 0 0 .3-1.19.564.564 0 0 0-.282-.489l-.011-.006-9.181-5.23a1.3 1.3 0 0 0-.123-.07 1.272 1.272 0 0 0-1.129 0 1.289 1.289 0 0 0-.123.07l-9.181 5.23-.011.006a.565.565 0 0 0-.282.489 9.6 9.6 0 0 0 .3 1.19l9.735 7.12z" transform="translate(-204.281 -130.314)" style="fill:#0a2767"/>
            <path data-name="패스 3595" d="M280.616 124.379h-5.93l-1.712 2.542 1.712 2.541 5.93 5.083h5.084v-5.083z" transform="translate(-246.34 -106.198)" style="fill:#28a8ea"/>
        </g>
        <path data-name="패스 3596" d="M238.746 124.379h5.93v5.083h-5.93z" transform="translate(-216.33 -106.197)" style="fill-rule:evenodd;fill:#0078d4"/>
        <path data-name="패스 3597" d="M334.99 124.379h5.083v5.083h-5.083z" transform="translate(-300.714 -106.197)" style="fill:#50d9ff;fill-rule:evenodd"/>
        <path data-name="패스 3598" d="m250.606 170.71-5.93-5.083h-5.93v5.083l5.93 5.083 9.176 1.5z" transform="translate(-216.33 -142.363)" style="fill:#0364b8"/>
        <path data-name="패스 3599" d="M238.959 124.379h16.916" transform="translate(-216.517 -106.197)" style="fill:none"/>
        <path data-name="패스 3600" d="M286.868 165.627h5.93v5.083h-5.93z" transform="translate(-258.522 -142.363)" style="fill-rule:evenodd;fill:#0078d4"/>
        <path data-name="패스 3601" d="M238.746 206.874h5.93v5.083h-5.93z" transform="translate(-216.33 -178.527)" style="fill:#064a8c;fill-rule:evenodd"/>
        <path data-name="패스 3602" d="M334.99 206.874h5.083v5.083h-5.083z" transform="translate(-300.714 -178.527)" style="fill-rule:evenodd;fill:#0078d4"/>
        <g data-name="그룹 3424">
            <path data-name="패스 3603" d="m237.717 206.115-9.991-7.285.418-.736s9.1 5.184 9.241 5.262a.447.447 0 0 0 .357-.01l9.258-5.278.42.736z" transform="translate(-206.668 -170.806)" style="fill:rgba(10,39,103,.5)"/>
            <path data-name="패스 3604" d="m313.475 200.489-.011.007-9.181 5.23a1.269 1.269 0 0 1-1.237.077l3.2 4.287 6.992 1.522a1.27 1.27 0 0 0 .525-1.028V200a.565.565 0 0 1-.282.489z" transform="translate(-272.705 -172.5)" style="fill:#1490df"/>
            <path data-name="패스 3605" d="M313.751 247.2v-.625l-8.457-4.818-1.021.581a1.269 1.269 0 0 1-1.237.077l3.2 4.287 6.992 1.522a1.27 1.27 0 0 0 .525-1.028z" transform="translate(-272.699 -209.11)" style="fill:rgba(0,0,0,.05)"/>
            <path data-name="패스 3606" d="m313.709 250.99-9.27-5.281-.165.094a1.269 1.269 0 0 1-1.237.077l3.2 4.287 6.992 1.522a1.272 1.272 0 0 0 .483-.7z" transform="translate(-272.699 -212.576)" style="fill:rgba(0,0,0,.1)"/>
            <path data-name="패스 3607" d="M225.292 200.5v-.009h-.008l-.026-.017A.552.552 0 0 1 225 200v10.591a1.275 1.275 0 0 0 1.269 1.269h17.791a1.275 1.275 0 0 0 .313-.042.542.542 0 0 0 .153-.051.122.122 0 0 0 .051-.017.886.886 0 0 0 .195-.11l.034-.025z" transform="translate(-204.274 -172.5)" style="fill:#28a8ea"/>
            <path data-name="패스 3608" d="M233.467 153.1v-13.835a1.138 1.138 0 0 0-1.129-1.129h-5.621v6.316l-1.424.812-.011.006a.565.565 0 0 0-.282.489v8.47h7.342a1.138 1.138 0 0 0 1.125-1.129z" transform="translate(-204.274 -118.259)" style="fill:rgba(0,0,0,.1)"/>
            <path data-name="패스 3609" d="M232.62 159.975v-13.836a1.138 1.138 0 0 0-1.129-1.129h-4.774v5.469l-1.424.812-.011.006a.565.565 0 0 0-.282.489v9.314h6.495a1.138 1.138 0 0 0 1.125-1.125zm0-1.694v-12.142a1.138 1.138 0 0 0-1.129-1.129h-4.774v5.469l-1.424.812-.011.006a.565.565 0 0 0-.282.489v7.623h6.495a1.138 1.138 0 0 0 1.125-1.128zm-.847 0v-12.142a1.138 1.138 0 0 0-1.129-1.129h-3.927v5.469l-1.424.812-.011.006a.565.565 0 0 0-.282.489v7.623h5.648a1.138 1.138 0 0 0 1.125-1.128z" transform="translate(-204.274 -124.286)" style="fill:rgba(0,0,0,.2)"/>
            <path data-name="패스 3610" d="M171.129 145h11.295a1.135 1.135 0 0 1 1.129 1.129v11.295a1.135 1.135 0 0 1-1.129 1.129h-11.295a1.135 1.135 0 0 1-1.129-1.125v-11.295a1.135 1.135 0 0 1 1.129-1.133z" transform="translate(-156.055 -124.281)" style="fill:#0078d4"/>
            <path data-name="패스 3611" d="M193.233 167.705a3.543 3.543 0 0 1 1.391-1.537 4.206 4.206 0 0 1 2.211-.554 3.911 3.911 0 0 1 2.045.525 3.506 3.506 0 0 1 1.354 1.468 4.74 4.74 0 0 1 .474 2.159 5 5 0 0 1-.489 2.259 3.592 3.592 0 0 1-1.394 1.52 4.065 4.065 0 0 1-2.122.54 4.006 4.006 0 0 1-2.091-.531 3.562 3.562 0 0 1-1.371-1.471 4.623 4.623 0 0 1-.479-2.134 5.128 5.128 0 0 1 .471-2.245zm1.482 3.607a2.3 2.3 0 0 0 .783 1.011 2.041 2.041 0 0 0 1.222.369 2.145 2.145 0 0 0 1.305-.38 2.205 2.205 0 0 0 .76-1.014 3.919 3.919 0 0 0 .243-1.411 4.289 4.289 0 0 0-.229-1.428 2.261 2.261 0 0 0-.734-1.051 2.022 2.022 0 0 0-1.293-.4 2.111 2.111 0 0 0-1.251.371 2.323 2.323 0 0 0-.8 1.02 4.047 4.047 0 0 0-.006 2.913z" transform="translate(-176.012 -142.35)" style="fill:#fff"/>
        </g>
        <path data-name="패스 3612" d="M170 90.006h27.108v27.108H170z" transform="translate(-156.055 -76.06)" style="fill:none"/>
    </g>
</svg>
