<svg xmlns="http://www.w3.org/2000/svg" width="21.5" height="21.5" viewBox="0 0 21.5 21.5">
    <path data-name="패스 11451" d="M12 15a3 3 0 1 0-3-3 3 3 0 0 0 3 3z" style="fill:none;stroke:#000;stroke-linecap:round;stroke-linejoin:round;stroke-width:1.5px" transform="translate(-1.25 -1.25)"/>
    <path data-name="패스 11452" d="m19.622 10.395-1.1-2.65L20 6l-2-2-1.735 1.483-2.707-1.113L12.935 2h-1.954l-.632 2.4L7.7 5.516 6 4 4 6l1.453 1.789-1.08 2.657L2 11v2l2.4.655L5.516 16.3 4 18l2 2 1.791-1.46 2.609 1.072L11 22h2l.6-2.387 2.651-1.1C16.7 18.831 18 20 18 20l2-2-1.484-1.75 1.1-2.652 2.384-.62V11z" style="fill:none;stroke:#000;stroke-linecap:round;stroke-linejoin:round;stroke-width:1.5px" transform="translate(-1.25 -1.25)"/>
</svg>
