<svg xmlns="http://www.w3.org/2000/svg" width="14.2" height="12.7" viewBox="0 0 14.2 12.7">
    <path data-name="패스 11422" d="M1.046 5.814H3.4v6.26H1.046a.5.5 0 0 1-.5-.5V6.31a.5.5 0 0 1 .5-.5z" style="fill:#ffc600" transform="translate(.1 -.619)"/>
    <path data-name="패스 11423" d="M1.046 5.814H3.4v6.26H1.046a.5.5 0 0 1-.5-.5V6.31a.5.5 0 0 1 .5-.5z" transform="translate(.1 -.619)" style="stroke:#ffc600;stroke-linecap:round;stroke-linejoin:round;stroke-width:1.3px;fill:transparent"/>
    <path data-name="패스 11425" d="m3.4 5.814 2.52-4.028a1.081 1.081 0 0 1 .93-.516 1.1 1.1 0 0 1 1.141 1.091v2.887h4.355a1.141 1.141 0 0 1 1.091 1.31l-.794 5.119a1.131 1.131 0 0 1-1.121.992H5.014a1.983 1.983 0 0 1-.893-.208l-.714-.361" style="fill:none;stroke:#ffc600;stroke-linecap:round;stroke-linejoin:round;stroke-width:1.3px" transform="translate(.1 -.619)"/>
    <path data-name="패스 11426" d="M3.4 5.814v6.26" style="fill:none;stroke:#ffc600;stroke-linecap:round;stroke-linejoin:round;stroke-width:1.3px" transform="translate(.1 -.619)"/>
</svg>
