<svg xmlns="http://www.w3.org/2000/svg" width="20" height="22.857" viewBox="0 0 20 22.857">
    <g style="fill:none">
        <path d="M10.018 0A1.427 1.427 0 0 0 8.59 1.429v.857a7.146 7.146 0 0 0-5.714 7v.839a8.592 8.592 0 0 1-2.165 5.7l-.33.371a1.429 1.429 0 0 0 1.067 2.379h17.141a1.429 1.429 0 0 0 1.067-2.379l-.33-.371a8.583 8.583 0 0 1-2.165-5.7v-.839a7.146 7.146 0 0 0-5.714-7v-.857A1.427 1.427 0 0 0 10.018 0zm2.022 22.022A2.858 2.858 0 0 0 12.875 20H7.161a2.86 2.86 0 0 0 4.879 2.022z" style="stroke:none" transform="translate(-.019)"/>
        <path d="m10.018 3.527-1.13.229a5.656 5.656 0 0 0-4.513 5.53v.839c0 2.465-.903 4.841-2.545 6.694l-.225.252h16.826l-.227-.255a10.081 10.081 0 0 1-2.543-6.691v-.84c0-2.674-1.898-5-4.512-5.53l-1.13-.228m0-3.527c.79 0 1.428.638 1.428 1.429v.857a7.146 7.146 0 0 1 5.714 7v.839c0 2.103.772 4.125 2.165 5.696l.33.37a1.431 1.431 0 0 1-1.067 2.38H1.447c-.563 0-1.076-.33-1.304-.844a1.434 1.434 0 0 1 .237-1.535l.33-.37a8.592 8.592 0 0 0 2.165-5.697v-.84a7.146 7.146 0 0 1 5.715-7V1.43C8.59.639 9.228 0 10.018 0zM7.16 20h5.714c0 .759-.299 1.486-.835 2.022a2.858 2.858 0 0 1-2.022.835c-.759 0-1.486-.3-2.022-.835A2.858 2.858 0 0 1 7.16 20z" style="fill:#000;stroke:none" transform="translate(-.019)"/>
    </g>
</svg>
